<?xml version="1.0" standalone="no"?>
<!DOCTYPE svg PUBLIC "-//W3C//DTD SVG 20010904//EN"
 "http://www.w3.org/TR/2001/REC-SVG-20010904/DTD/svg10.dtd">
<svg version="1.0" xmlns="http://www.w3.org/2000/svg"
 width="735.000000pt" height="735.000000pt" viewBox="0 0 735.000000 735.000000"
 preserveAspectRatio="xMidYMid meet">

<g transform="translate(0.000000,735.000000) scale(0.100000,-0.100000)"
fill="#000000" stroke="none">
<path d="M0 5299 c0 -1522 3 -2056 11 -2072 7 -12 30 -44 53 -71 42 -51 127
-178 216 -326 31 -51 82 -116 128 -161 74 -73 170 -181 250 -280 20 -26 52
-59 70 -74 36 -30 39 -45 17 -79 -15 -23 -14 -26 47 -91 77 -82 92 -89 157
-69 27 8 53 14 58 13 4 -1 10 -1 13 1 46 17 110 0 140 -37 28 -36 25 -56 -13
-71 -17 -7 -54 -24 -82 -37 l-50 -24 40 6 c22 3 72 21 111 39 46 21 80 31 94
27 15 -4 21 -2 16 5 -12 21 32 22 77 3 59 -25 77 -54 90 -146 6 -41 15 -75 20
-75 4 0 5 -5 1 -11 -5 -9 1 -10 20 -5 19 5 35 1 57 -14 35 -26 46 -45 64 -113
14 -56 29 -160 19 -139 -3 6 -10 10 -15 6 -5 -3 -9 2 -9 11 0 9 -9 25 -20 37
-18 19 -21 20 -37 6 -10 -8 -35 -23 -57 -32 -38 -18 -39 -18 -78 4 -55 31 -61
16 -11 -30 22 -21 43 -45 46 -52 4 -10 6 -10 6 0 1 6 5 12 11 12 5 0 6 -7 3
-17 -4 -10 -2 -14 4 -10 6 4 13 0 17 -8 3 -8 12 -15 21 -15 8 0 15 -8 15 -17
0 -13 3 -14 11 -6 9 9 20 5 43 -15 63 -55 206 -206 219 -231 8 -14 30 -57 50
-96 39 -77 121 -291 141 -370 22 -89 26 -92 113 -98 43 -3 166 -12 273 -21
107 -8 254 -20 325 -26 72 -5 148 -12 170 -15 22 -3 117 -10 210 -16 449 -28
458 -29 472 -48 12 -14 12 -14 7 4 -7 20 -7 20 9 0 26 -33 11 -40 -91 -42
-135 -2 -626 -22 -687 -28 -27 -2 -97 -7 -155 -9 -157 -8 -222 -17 -249 -33
l-24 -16 24 -12 c13 -7 44 -15 69 -19 24 -4 47 -10 50 -14 11 -16 134 -51 141
-40 4 7 9 6 14 -2 4 -7 17 -9 32 -6 14 4 35 0 53 -10 23 -14 32 -15 43 -5 9 7
17 8 19 2 1 -5 32 -12 68 -16 36 -4 69 -9 73 -12 4 -3 43 -7 85 -9 42 -2 127
-11 187 -19 61 -9 162 -18 225 -21 63 -3 131 -9 150 -14 39 -11 114 -15 520
-30 151 -5 298 -13 325 -17 29 -5 64 -5 83 1 23 7 43 6 66 -2 18 -7 50 -12 73
-12 22 0 43 -3 46 -6 3 -4 57 -8 119 -10 62 -3 163 -9 225 -15 78 -7 118 -7
131 0 19 10 206 4 457 -16 50 -4 333 -7 630 -7 553 -1 681 5 805 40 66 19 72
23 127 98 l43 60 55 -3 56 -2 -6 3363 c-3 1850 -8 3456 -10 3571 l-6 207
-3664 0 -3665 0 0 -2051z m6523 1140 c-5 -44 -7 -47 -41 -53 -41 -6 -79 8 -49
19 9 4 17 16 17 27 0 16 -3 18 -13 10 -10 -9 -19 -7 -35 4 -28 19 -20 34 16
29 15 -2 45 0 67 4 22 4 41 7 42 7 0 -1 -1 -22 -4 -47z m-324 -29 c-1 -28 -4
-52 -8 -54 -3 -2 -31 -7 -62 -10 l-57 -7 -6 34 c-12 63 11 85 91 86 l43 1 -1
-50z m201 -29 c-14 -8 -61 -15 -85 -12 -26 3 25 21 60 21 28 -1 35 -3 25 -9z
m-504 -117 c-12 -31 -26 -1 -25 54 l1 57 15 -48 c8 -27 12 -55 9 -63z m144 67
c0 -4 -20 -8 -45 -10 -43 -2 -64 14 -27 21 24 5 72 -3 72 -11z m-43 -57 c-3
-3 -12 -4 -19 -1 -8 3 -5 6 6 6 11 1 17 -2 13 -5z m230 -146 c-3 -8 -6 -5 -6
6 -1 11 2 17 5 13 3 -3 4 -12 1 -19z m-31 -19 c3 -71 3 -71 25 -64 18 6 20 3
17 -21 -4 -38 -46 -43 -77 -10 -19 20 -20 24 -7 36 12 9 13 17 5 31 -7 13 -6
25 1 40 14 26 35 19 36 -12z m-267 -13 c7 -8 9 -25 6 -39 -5 -18 -2 -28 12
-36 17 -9 17 -11 -7 -35 -14 -13 -36 -26 -50 -28 -21 -2 -26 2 -28 26 -3 22 0
27 11 23 16 -6 33 36 22 54 -8 12 3 49 14 49 5 0 14 -6 20 -14z m-49 -11 c0
-8 -4 -15 -10 -15 -5 0 -10 7 -10 15 0 8 5 15 10 15 6 0 10 -7 10 -15z m-53
-117 c-3 -8 -6 -5 -6 6 -1 11 2 17 5 13 3 -3 4 -12 1 -19z m329 -16 c-10 -10
-29 15 -21 28 6 9 10 8 17 -4 6 -10 7 -20 4 -24z m139 -2 c3 -5 -1 -10 -9 -10
-8 0 -18 5 -21 10 -3 6 1 10 9 10 8 0 18 -4 21 -10z m-471 -60 c-6 -6 -19 -7
-30 -3 -17 6 -17 8 6 13 29 8 38 4 24 -10z m-2619 -298 c6 -4 16 -20 23 -35
13 -30 115 -84 179 -94 39 -7 53 -27 44 -63 -5 -17 -15 -26 -31 -28 -14 -2
-29 -7 -35 -12 -5 -4 -37 -4 -70 1 -37 5 -61 4 -63 -1 -2 -6 -9 -10 -15 -10
-7 0 -29 -9 -50 -20 -38 -21 -99 -28 -81 -10 5 5 21 11 34 13 21 3 25 10 27
41 0 21 4 40 7 44 4 3 30 6 58 7 60 0 73 17 30 39 -16 8 -33 27 -36 41 -5 20
-12 25 -40 25 -50 0 -77 -29 -71 -74 3 -25 1 -36 -7 -34 -6 2 -13 24 -15 48
-6 63 -16 72 -81 66 -29 -3 -57 -8 -60 -11 -4 -4 -8 -34 -9 -68 -1 -34 -6 -63
-11 -65 -5 -1 -21 11 -36 29 -33 39 -54 32 -58 -18 -4 -52 -22 -44 -26 11 -3
43 -5 46 -38 52 -19 3 -37 11 -40 16 -7 12 53 67 81 74 81 19 117 21 130 8 18
-19 29 -18 50 6 20 22 46 25 76 10 14 -8 25 -7 41 5 23 16 76 20 93 7z m-551
-95 c26 -21 27 -26 16 -47 -7 -14 -11 -46 -8 -81 4 -53 3 -57 -14 -48 -21 11
-20 8 -23 79 -2 63 -13 103 -25 95 -12 -8 -23 13 -16 31 6 17 22 10 70 -29z
m-494 18 c0 -8 -4 -15 -10 -15 -5 0 -7 7 -4 15 4 8 8 15 10 15 2 0 4 -7 4 -15z
m10 -101 c0 -2 -7 -4 -15 -4 -10 0 -15 10 -15 33 l0 32 15 -29 c8 -15 15 -30
15 -32z m318 -5 c2 -14 26 -52 53 -82 28 -31 48 -61 44 -67 -10 -17 -55 -11
-62 8 -4 9 -33 47 -65 83 -53 60 -71 88 -50 75 4 -2 14 0 22 5 27 17 55 6 58
-22z m-204 -2 l61 2 -55 -13 c-30 -8 -63 -17 -72 -21 -13 -5 -20 -1 -27 16
-11 31 -4 44 16 27 10 -8 40 -12 77 -11z m-160 -14 c19 -21 23 -31 15 -50 -4
-12 -6 -23 -3 -23 4 0 1 -7 -6 -15 -9 -11 -16 -13 -23 -6 -7 7 -6 15 3 26 10
12 10 15 -2 15 -19 0 -42 44 -35 64 9 23 23 20 51 -11z m243 -69 c3 -8 17 -20
32 -26 15 -6 21 -12 14 -15 -23 -8 -15 -59 12 -77 30 -20 32 -37 6 -60 -27
-25 -41 -12 -41 35 0 27 -8 51 -24 72 -33 43 -44 87 -22 87 9 0 19 -7 23 -16z
m673 -14 c0 -5 -4 -10 -10 -10 -5 0 -10 5 -10 10 0 6 5 10 10 10 6 0 10 -4 10
-10z m45 0 c-3 -5 -13 -10 -21 -10 -8 0 -14 5 -14 10 0 6 9 10 21 10 11 0 17
-4 14 -10z m195 -30 c29 -26 39 -40 28 -40 -23 0 -58 -47 -59 -79 0 -14 -3
-20 -6 -13 -3 7 -18 19 -35 28 -36 19 -36 55 1 64 34 8 38 28 6 32 -24 3 -25
4 -10 26 9 12 19 22 23 22 4 -1 27 -19 52 -40z m-320 21 c0 -11 -49 -21 -55
-10 -3 4 7 10 22 12 16 2 29 5 31 6 1 0 2 -3 2 -8z m-171 -30 c18 -12 5 -18
-56 -26 -29 -3 -67 -10 -85 -16 -21 -6 -36 -5 -43 2 -15 15 11 27 75 34 30 4
62 8 70 9 8 2 17 4 20 5 3 0 11 -3 19 -8z m-900 -50 c-8 -24 -14 -29 -20 -20
-6 11 -11 11 -20 2 -16 -16 -4 -43 20 -43 21 0 34 -32 47 -113 6 -32 4 -36
-10 -31 -9 3 -13 10 -10 15 3 5 1 9 -5 9 -5 0 -12 18 -16 41 -4 23 -16 48 -26
57 -13 11 -19 30 -19 59 0 36 4 45 28 57 35 19 45 8 31 -33z m1562 -8 c0 -5 2
-19 5 -33 l4 -25 -20 25 c-24 30 -25 40 -5 40 8 0 15 -3 16 -7z m-746 -43 c0
-9 -15 -17 -45 -22 -48 -8 -66 1 -56 27 8 22 101 18 101 -5z m695 -3 c0 -27
-19 -57 -35 -57 -16 0 -19 20 -9 57 7 27 44 27 44 0z m-140 -71 c0 -27 -8 -32
-73 -41 -39 -6 -47 -4 -56 13 -17 31 13 47 97 51 27 1 32 -2 32 -23z m200 -30
c0 -16 -43 -27 -61 -16 -19 12 0 30 32 30 18 0 29 -5 29 -14z m2360 -27 c28
-9 39 -18 43 -36 5 -25 3 -25 -44 -21 -36 4 -49 2 -49 -8 0 -13 -66 -31 -77
-20 -10 9 16 34 44 41 21 5 24 8 12 16 -12 8 -11 12 5 24 24 18 20 18 66 4z
m310 2 c0 -5 -15 -18 -34 -29 -33 -20 -74 -27 -126 -23 -23 2 -23 3 10 18 80
36 150 52 150 34z m-3377 -7 c13 -14 -8 -34 -45 -44 -51 -14 -78 -5 -78 26 0
23 3 24 58 24 32 0 61 -3 65 -6z m3839 -63 c65 -33 94 -62 156 -160 29 -46 26
-39 51 -151 28 -133 33 -170 20 -147 -6 9 -12 27 -14 40 -12 61 -17 77 -26 77
-5 0 -9 -5 -9 -12 0 -7 -29 -39 -64 -73 -35 -33 -73 -78 -85 -100 -17 -33 -21
-36 -21 -16 0 24 29 81 41 81 9 0 33 70 26 77 -3 2 -14 -4 -25 -14 -65 -62
-104 -66 -138 -13 -24 37 -44 150 -26 150 5 0 12 -26 16 -57 9 -79 16 -89 53
-74 16 7 47 30 69 51 21 22 46 39 54 40 9 0 26 7 38 16 21 15 22 14 22 -16 0
-17 4 -29 9 -26 5 4 11 0 14 -6 3 -9 8 -10 16 -2 9 8 5 24 -14 65 -37 79 -63
122 -80 131 -8 5 -15 16 -15 23 0 8 -4 15 -10 15 -5 0 -18 8 -28 18 -34 34
-106 65 -149 64 -67 0 -153 -66 -153 -117 0 -9 -4 -13 -10 -10 -15 9 -33 -40
-26 -70 7 -26 8 -27 26 -10 11 10 20 24 20 32 0 7 5 13 10 13 13 0 13 -27 0
-35 -30 -19 -108 -273 -94 -309 3 -8 17 -11 35 -8 49 7 76 60 84 162 12 156
12 179 3 182 -5 2 -2 12 6 23 8 11 18 17 22 13 4 -4 1 -14 -6 -23 -8 -10 -9
-15 -2 -15 6 0 9 -8 5 -17 -5 -15 -3 -15 9 1 9 11 13 29 11 40 -4 21 -4 21 9
1 9 -14 12 -53 10 -135 -5 -175 -10 -191 -71 -239 -33 -27 -41 -39 -41 -66 0
-27 7 -38 33 -56 65 -46 83 -84 93 -199 14 -148 12 -175 -11 -175 -11 0 -19
-6 -18 -12 4 -18 -22 -16 -37 2 -17 21 -25 19 -38 -10 -10 -23 -8 -29 18 -57
17 -17 30 -34 30 -38 0 -9 41 -25 84 -35 22 -5 45 2 93 26 35 18 63 38 63 45
0 8 7 14 15 14 23 0 39 38 23 58 -12 15 -11 16 5 3 9 -8 19 -12 21 -10 17 18
46 84 46 104 0 15 6 25 14 25 8 0 19 20 26 48 8 26 14 49 15 52 1 3 5 24 10
48 4 23 11 42 16 42 12 0 11 -51 -1 -108 -6 -26 -15 -69 -21 -97 -13 -56 -54
-148 -75 -166 -8 -6 -14 -22 -14 -35 0 -17 -4 -22 -15 -18 -9 4 -23 -3 -34
-15 -10 -12 -33 -26 -50 -32 -17 -6 -31 -14 -31 -18 0 -16 -139 -1 -171 18
-18 11 -36 18 -39 16 -4 -2 -13 6 -20 19 -7 13 -22 29 -34 35 -11 7 -34 40
-50 74 -28 61 -58 157 -50 157 3 0 14 -9 26 -20 12 -11 25 -20 30 -20 12 0 10
38 -3 61 -6 11 -13 43 -15 71 -3 28 -9 58 -13 67 -5 9 -7 88 -5 176 5 190 9
236 22 244 6 3 13 23 17 44 6 32 5 36 -9 31 -9 -3 -16 -14 -16 -24 0 -11 -5
-22 -11 -26 -6 -3 -9 -15 -6 -25 3 -10 1 -22 -4 -25 -5 -3 -9 0 -9 6 0 6 -4 8
-10 5 -5 -3 -10 2 -10 11 0 21 29 124 41 144 5 8 20 38 34 65 13 28 25 46 25
41 0 -6 15 4 33 21 74 71 183 93 259 54z m-1182 -108 c3 -3 -10 -3 -27 0 l-33
7 0 -60 c0 -53 2 -60 20 -60 12 0 20 -7 20 -17 0 -9 -3 -14 -6 -11 -3 4 -34
-7 -69 -23 -36 -16 -71 -29 -80 -29 -22 0 -19 23 5 38 17 10 20 23 20 77 0 64
0 65 37 83 30 16 44 17 72 10 20 -6 38 -13 41 -15z m47 -4 c-14 -8 -22 -8 -30
0 -8 8 -3 11 19 11 25 -1 27 -2 11 -11z m80 -48 c5 -36 8 -40 28 -37 13 2 32
9 43 15 30 16 64 13 89 -7 l22 -17 -35 -75 c-19 -41 -38 -83 -41 -92 -6 -19
-26 -22 -58 -8 -19 8 -19 9 2 9 27 1 38 17 17 25 -8 3 -13 10 -9 16 3 5 3 26
-1 46 -5 25 -9 32 -15 22 -7 -10 -9 -9 -9 5 0 10 -4 16 -9 13 -12 -8 -71 14
-71 26 0 5 4 7 9 3 13 -7 29 25 25 48 -5 35 -13 47 -31 48 -16 0 -15 1 2 9 27
10 36 0 42 -49z m-473 -58 c3 -21 6 -52 6 -70 0 -20 7 -36 17 -42 16 -9 16
-11 -6 -30 -26 -23 -56 -27 -66 -11 -5 8 -11 7 -21 -1 -12 -9 -13 -9 -9 2 3 8
7 45 8 82 2 37 9 73 15 79 9 9 12 8 12 -5 0 -9 5 -17 11 -17 6 0 8 7 5 16 -3
9 -4 20 0 25 11 19 22 8 28 -28z m397 6 c25 -13 16 -29 -14 -22 -41 9 -48 13
-42 23 8 13 31 13 56 -1z m-2441 -69 c0 -38 -4 -70 -9 -70 -5 0 -8 8 -6 18 2
9 4 41 4 70 1 28 3 52 6 52 3 0 5 -31 5 -70z m2243 -121 c-14 -14 -110 -48
-136 -49 -12 0 -17 6 -15 17 2 11 27 24 73 38 67 21 102 18 78 -6z m-3260 -36
c5 -26 2 -42 -7 -32 -9 11 -15 59 -7 59 5 0 11 -12 14 -27z m1522 -3 c3 -5 1
-10 -4 -10 -6 0 -11 5 -11 10 0 6 2 10 4 10 3 0 8 -4 11 -10z m3310 -162 c3
-59 2 -109 -3 -112 -5 -3 -9 47 -9 110 -1 64 1 114 3 112 2 -2 6 -52 9 -110z
m-238 -10 c-3 -7 -5 -2 -5 12 0 14 2 19 5 13 2 -7 2 -19 0 -25z m133 -140 c36
-12 46 -42 33 -95 -8 -35 -12 -38 -41 -36 -18 0 -47 12 -65 25 -59 43 -118 71
-129 60 -5 -5 -12 -28 -15 -51 -7 -51 -23 -64 -23 -19 0 49 40 124 65 122 27
-2 108 -35 118 -48 6 -8 10 -7 14 2 7 18 23 15 23 -6 0 -24 36 -47 44 -27 2 7
-2 19 -10 25 -8 7 -14 10 -14 7 0 -4 -18 12 -39 33 -22 22 -43 40 -48 40 -10
0 -43 53 -43 69 0 7 23 -11 50 -39 28 -28 64 -56 80 -62z m-510 -129 c0 -6 -4
-7 -10 -4 -5 3 -10 11 -10 16 0 6 5 7 10 4 6 -3 10 -11 10 -16z m502 -23 c7 4
8 2 4 -5 -9 -13 -26 -5 -25 12 0 9 2 8 6 -1 2 -6 10 -9 15 -6z m-216 -43 c-11
-11 -19 6 -11 24 8 17 8 17 12 0 3 -10 2 -21 -1 -24z m-1246 23 c0 -9 -40 -13
-46 -5 -3 5 6 9 20 9 14 0 26 -2 26 -4z m1252 -68 c-9 -9 -12 -7 -12 12 0 19
3 21 12 12 9 -9 9 -15 0 -24z m5 -100 c-3 -7 -5 -2 -5 12 0 14 2 19 5 13 2 -7
2 -19 0 -25z m213 -127 c0 -6 -4 -13 -10 -16 -5 -3 -10 1 -10 9 0 9 5 16 10
16 6 0 10 -4 10 -9z m-604 -58 c-3 -4 2 -15 11 -26 18 -19 17 -19 -37 -12 -30
4 -82 16 -115 27 -64 21 -95 40 -54 33 13 -2 42 -6 64 -9 22 -2 49 -8 59 -12
15 -6 18 -4 13 8 -9 25 3 29 35 12 17 -9 27 -18 24 -21z m129 -83 c-3 -5 -12
-7 -20 -3 -21 7 -19 13 6 13 11 0 18 -4 14 -10z m80 -108 c-3 -3 -11 0 -18 7
-9 10 -8 11 6 5 10 -3 15 -9 12 -12z m178 11 c-7 -2 -19 -2 -25 0 -7 3 -2 5
12 5 14 0 19 -2 13 -5z m64 1 c-3 -3 -12 -4 -19 -1 -8 3 -5 6 6 6 11 1 17 -2
13 -5z m-369 -11 c-10 -2 -26 -2 -35 0 -10 3 -2 5 17 5 19 0 27 -2 18 -5z
m-280 -10 c-15 -2 -42 -2 -60 0 -18 2 -6 4 27 4 33 0 48 -2 33 -4z m90 0 c-10
-2 -26 -2 -35 0 -10 3 -2 5 17 5 19 0 27 -2 18 -5z m-1328 -34 c0 -5 -10 -9
-21 -9 -18 0 -19 2 -9 15 12 15 30 12 30 -6z m1912 -699 c-40 -3 -78 -12 -84
-18 -7 -7 -8 -12 -2 -13 5 0 -28 -13 -73 -29 -73 -25 -198 -77 -245 -101 -23
-12 -28 -11 -28 1 0 6 5 10 11 10 5 0 38 13 72 29 104 48 131 59 161 67 17 4
54 20 84 36 44 23 66 28 116 27 l61 -2 -73 -7z m125 -36 c-3 -3 -12 -4 -19 -1
-8 3 -5 6 6 6 11 1 17 -2 13 -5z m87 -23 c4 -5 -3 -7 -14 -4 -23 6 -26 13 -6
13 8 0 17 -4 20 -9z m-654 -111 c0 -5 -5 -10 -11 -10 -5 0 -7 5 -4 10 3 6 8
10 11 10 2 0 4 -4 4 -10z m551 -46 c11 -14 10 -16 -6 -14 -34 4 -36 1 -19 -27
16 -27 15 -27 -10 2 -14 17 -26 36 -26 43 0 17 45 15 61 -4z m49 -14 c0 -5 -6
-9 -12 -7 -15 2 -14 -13 6 -108 8 -38 15 -90 14 -115 0 -42 -1 -41 -8 15 -5
33 -16 89 -25 123 -9 35 -13 72 -10 83 6 19 35 27 35 9z m-436 -102 c-9 -18
-19 -28 -21 -21 -2 6 4 27 13 45 9 18 19 28 21 21 2 -6 -4 -27 -13 -45z m-574
9 c0 -2 -11 -17 -25 -33 -14 -16 -25 -32 -25 -36 0 -5 -4 -8 -10 -8 -19 0 -10
20 23 50 32 29 37 33 37 27z m363 -123 c26 -9 50 -20 53 -25 5 -8 -104 27
-115 37 -10 9 18 3 62 -12z m-577 -35 c58 -15 67 -30 12 -23 -73 10 -117 -12
-162 -80 -48 -71 -60 -57 -19 22 20 41 39 62 63 74 42 21 49 21 106 7z m838
-50 c56 -17 119 -38 141 -45 l40 -14 -40 6 c-44 6 -255 72 -255 80 0 7 11 5
114 -27z m352 -54 c-11 -8 -25 -15 -30 -15 -6 1 0 7 14 15 32 19 40 18 16 0z
m-881 -15 c3 -5 1 -10 -4 -10 -6 0 -11 5 -11 10 0 6 2 10 4 10 3 0 8 -4 11
-10z m1105 -43 c-22 -37 -64 -69 -150 -112 -74 -37 -93 -54 -79 -72 16 -19 8
-24 -47 -30 l-47 -5 24 34 c31 44 45 58 59 58 26 0 176 88 214 126 22 23 42
40 44 39 2 -1 -7 -18 -18 -38z m-924 -18 c3 -5 -9 -9 -25 -9 -29 0 -39 9 -25
22 7 8 43 -2 50 -13z m452 -21 c77 -11 103 -21 88 -35 -3 -3 -12 -1 -19 5 -14
12 -211 28 -379 31 -28 1 -48 6 -48 12 0 13 229 5 358 -13z m302 -32 c0 -3 -4
-8 -10 -11 -5 -3 -10 -1 -10 4 0 6 5 11 10 11 6 0 10 -2 10 -4z m-154 -67 c3
-5 1 -9 -5 -9 -17 0 -41 12 -41 20 0 10 38 1 46 -11z m463 -13 c13 -7 20 -16
15 -19 -5 -3 -20 3 -33 14 -27 22 -17 25 18 5z m51 -47 c0 -6 -4 -7 -10 -4 -5
3 -10 11 -10 16 0 6 5 7 10 4 6 -3 10 -11 10 -16z m86 -72 c9 -17 14 -48 12
-80 -3 -48 -4 -50 -15 -27 -40 84 -57 129 -60 160 l-3 35 26 -30 c14 -16 32
-43 40 -58z m-471 23 c-23 -24 -29 -41 -33 -87 -4 -42 -7 -52 -13 -38 -22 56
-2 127 42 151 35 18 37 8 4 -26z m-693 0 c-2 -14 -6 -47 -9 -75 -6 -59 -16
-75 -43 -68 -24 6 -28 29 -15 90 4 16 -4 31 -27 53 l-33 30 65 -2 c63 -3 65
-4 62 -28z m53 -20 c3 -5 1 -10 -4 -10 -6 0 -11 5 -11 10 0 6 2 10 4 10 3 0 8
-4 11 -10z m1075 -100 c0 -27 -4 -52 -10 -55 -6 -4 -10 17 -10 55 0 38 4 59
10 55 6 -3 10 -28 10 -55z m-933 -37 c6 -18 38 -53 48 -53 3 0 5 6 5 14 0 16
125 22 135 6 3 -5 15 -10 26 -10 26 0 24 -16 -3 -24 -25 -7 -324 -35 -375 -36
-39 0 -44 15 -8 24 31 8 33 36 5 61 -11 10 -20 21 -20 25 0 4 41 8 90 9 79 2
91 0 97 -16z m-279 -25 c18 -18 14 -38 -7 -38 -20 0 -35 25 -25 41 7 12 18 11
32 -3z m-688 -82 c0 -18 -26 -40 -34 -27 -3 5 -15 7 -26 4 -11 -3 -20 0 -20 6
0 9 -5 9 -20 1 -12 -6 -30 -8 -40 -5 -38 12 -19 24 43 28 34 2 70 4 80 5 9 1
17 -4 17 -12z m1695 -12 c-11 -9 -29 -20 -40 -26 -17 -9 -16 -6 4 16 14 14 32
26 40 26 13 -1 12 -4 -4 -16z m-2130 -13 c-12 -11 -95 -19 -95 -9 0 6 30 12
85 16 11 1 15 -2 10 -7z m618 -49 c-6 -14 -4 -15 9 -4 13 10 17 10 21 -2 3 -8
-2 -16 -12 -19 -14 -3 -16 -12 -13 -41 4 -30 1 -36 -15 -36 -39 0 -48 32 -19
69 11 14 12 16 15 66 2 28 3 29 11 7 5 -12 6 -30 3 -40z m-283 18 c0 -15 -7
-20 -25 -20 -23 0 -24 2 -15 20 6 11 17 20 25 20 8 0 15 -9 15 -20z m40 -10
c0 -5 -4 -10 -10 -10 -5 0 -10 5 -10 10 0 6 5 10 10 10 6 0 10 -4 10 -10z
m1859 -76 c143 -71 235 -495 187 -860 -30 -219 -61 -306 -129 -355 -147 -107
-277 106 -322 526 -6 62 12 342 26 410 32 149 84 260 132 283 32 16 69 14 106
-4z m-4569 -374 c0 -5 -5 -10 -11 -10 -5 0 -7 5 -4 10 3 6 8 10 11 10 2 0 4
-4 4 -10z m2998 -307 c-15 -54 -73 -140 -110 -164 -59 -36 -139 -3 -145 61 -2
22 -1 23 8 7 8 -13 14 -15 30 -7 15 9 19 7 19 -5 0 -17 16 -20 25 -5 4 6 14 9
23 8 9 -2 16 2 15 9 -2 8 4 10 14 6 10 -4 14 -2 10 4 -3 5 5 16 18 23 14 7 25
21 25 30 0 23 41 69 62 69 14 1 15 -4 6 -36z m-790 -160 c-10 -2 -28 -2 -40 0
-13 2 -5 4 17 4 22 1 32 -1 23 -4z m58 -54 l29 -31 -140 6 c-172 8 -165 7
-165 22 0 8 29 15 83 22 148 17 160 16 193 -19z m1392 9 c-5 -13 -9 -15 -55
-17 -22 -1 -25 -3 -13 -11 8 -5 27 -10 42 -10 31 0 58 -32 58 -70 0 -33 -8
-42 -50 -61 -112 -53 -141 -49 -193 24 -10 14 -31 19 -107 23 -52 2 -125 6
-161 8 -67 4 -175 24 -194 36 -5 3 -22 6 -37 5 -16 0 -28 1 -28 3 0 2 13 17
30 35 16 18 30 35 30 40 0 4 153 7 341 7 268 0 340 -3 337 -12z m-14 -366 c22
-6 44 -8 49 -5 6 3 27 7 48 9 30 2 46 -3 69 -23 40 -34 27 -44 -35 -30 -27 6
-88 10 -134 9 -112 -3 -182 20 -137 45 19 11 92 8 140 -5z m-164 -12 c0 -5 -4
-10 -10 -10 -5 0 -10 5 -10 10 0 6 5 10 10 10 6 0 10 -4 10 -10z"/>
<path d="M3332 5418 c7 -19 38 -22 38 -4 0 10 -9 16 -21 16 -12 0 -19 -5 -17
-12z"/>
<path d="M6391 4714 c0 -11 3 -14 6 -6 3 7 2 16 -1 19 -3 4 -6 -2 -5 -13z"/>
<path d="M6680 4584 c0 -8 5 -12 10 -9 6 3 10 10 10 16 0 5 -4 9 -10 9 -5 0
-10 -7 -10 -16z"/>
<path d="M6250 4361 c0 -52 36 -53 42 -1 2 19 -2 26 -19 28 -20 3 -23 -1 -23
-27z"/>
<path d="M6254 4266 c-12 -32 56 -237 89 -268 10 -9 19 -20 19 -25 2 -31 22
-43 31 -19 7 16 -20 229 -34 272 -14 45 -92 75 -105 40z"/>
<path d="M6297 4003 c-10 -16 4 -53 20 -53 8 0 11 -5 7 -12 -5 -10 -4 -10 6
-1 10 9 9 18 -7 43 -11 18 -23 28 -26 23z"/>
<path d="M6427 3993 c-11 -10 -8 -43 3 -43 6 0 10 11 10 25 0 26 -2 29 -13 18z"/>
<path d="M5020 4660 c0 -5 5 -10 10 -10 6 0 10 5 10 10 0 6 -4 10 -10 10 -5 0
-10 -4 -10 -10z"/>
<path d="M7041 1384 c0 -11 3 -14 6 -6 3 7 2 16 -1 19 -3 4 -6 -2 -5 -13z"/>
<path d="M7051 1050 c-36 -43 -38 -49 -33 -75 6 -35 19 -42 90 -49 l63 -7 -6
46 c-12 106 -65 145 -114 85z"/>
<path d="M7148 803 c7 -3 16 -2 19 1 4 3 -2 6 -13 5 -11 0 -14 -3 -6 -6z"/>
<path d="M7025 683 c3 -15 10 -30 13 -33 4 -3 20 -24 35 -47 35 -54 60 -56 76
-5 21 69 19 84 -14 94 -16 4 -50 11 -74 13 -43 5 -43 5 -36 -22z"/>
<path d="M6930 482 c0 -25 16 -37 23 -18 3 8 -1 20 -9 26 -11 10 -14 9 -14 -8z"/>
<path d="M182 2153 c18 -3 25 -9 21 -19 -3 -9 1 -14 12 -14 11 0 15 5 12 14
-3 8 -1 17 6 20 7 2 -8 4 -33 4 -26 -1 -34 -3 -18 -5z"/>
<path d="M23 2143 l-23 -4 0 -1070 0 -1069 1833 2 c1007 0 1816 3 1797 5 -19
2 -116 12 -215 23 -99 10 -214 21 -255 25 -41 3 -138 12 -215 20 -77 8 -221
21 -320 30 -99 9 -238 23 -310 30 -71 8 -164 17 -205 20 -118 10 -123 12 -117
43 3 15 8 38 12 52 5 19 4 22 -4 10 -9 -12 -11 -10 -11 13 0 24 -3 27 -20 22
-14 -5 -20 -2 -20 9 0 9 -6 16 -14 16 -15 0 -26 30 -26 75 0 35 -9 50 -30 50
-8 0 -13 7 -12 15 5 19 5 19 3 56 0 17 -11 42 -23 56 -55 61 -88 100 -88 106
0 9 -117 120 -139 132 -12 6 -21 15 -21 21 0 5 -13 24 -30 42 -16 18 -30 36
-30 40 0 13 -27 36 -54 47 -14 5 -26 16 -26 25 0 8 -3 15 -7 15 -5 0 -29 20
-54 44 -25 23 -53 45 -62 49 -9 3 -24 18 -34 34 -25 39 -50 62 -77 73 -12 4
-23 15 -23 23 0 22 -64 95 -95 108 -16 6 -28 17 -28 23 0 14 -41 56 -56 56
-14 1 -49 33 -57 53 -3 9 -13 17 -22 17 -8 0 -34 19 -57 43 -24 23 -59 49 -78
58 -19 9 -45 26 -57 38 -12 11 -27 21 -33 21 -5 0 -10 7 -10 16 0 14 -68 84
-82 84 -4 0 -41 34 -81 75 -41 41 -81 75 -88 75 -8 0 -20 14 -28 31 -7 16 -30
46 -50 66 -23 23 -31 37 -23 40 6 3 12 13 12 23 0 10 6 20 13 23 6 2 9 7 6 11
-4 4 -33 -5 -65 -20 -185 -83 -253 -103 -203 -61 15 12 32 32 38 45 10 18 9
22 -4 22 -26 0 -65 31 -65 51 0 11 -4 19 -9 19 -5 0 -15 2 -23 4 -7 2 -23 1
-35 -1z"/>
<path d="M1338 1782 c-42 -26 -34 -35 25 -28 28 3 60 6 70 6 28 0 20 15 -16
28 -42 15 -46 15 -79 -6z"/>
<path d="M2320 320 c0 -5 4 -10 9 -10 6 0 13 5 16 10 3 6 -1 10 -9 10 -9 0
-16 -4 -16 -10z"/>
</g>
</svg>
