<?xml version="1.0" standalone="no"?>
<!DOCTYPE svg PUBLIC "-//W3C//DTD SVG 20010904//EN"
 "http://www.w3.org/TR/2001/REC-SVG-20010904/DTD/svg10.dtd">
<svg version="1.0" xmlns="http://www.w3.org/2000/svg"
 width="736.000000pt" height="736.000000pt" viewBox="0 0 736.000000 736.000000"
 preserveAspectRatio="xMidYMid meet">

<g transform="translate(0.000000,736.000000) scale(0.100000,-0.100000)"
fill="#000000" stroke="none">
<path d="M3483 6800 c-53 -11 -75 -23 -125 -68 -42 -38 -72 -88 -82 -137 -6
-33 -166 -1299 -166 -1319 0 -10 -13 -12 -49 -8 -40 3 -52 1 -70 -17 -20 -20
-21 -30 -21 -251 0 -228 0 -231 23 -254 13 -13 28 -25 34 -27 7 -3 5 -51 -8
-154 -11 -82 -61 -485 -113 -895 -54 -426 -91 -749 -86 -754 5 -5 11 1 14 15
4 13 47 348 96 744 50 396 99 789 110 873 11 84 20 158 20 163 0 5 27 9 60 9
79 0 82 -7 65 -140 -13 -95 -157 -1236 -220 -1734 -13 -110 -22 -202 -20 -205
17 -17 18 -10 191 1372 43 339 80 617 83 617 3 0 16 -18 29 -40 13 -23 52 -71
88 -109 117 -125 283 -222 484 -285 206 -64 264 -71 555 -71 290 1 365 11 574
81 250 83 462 240 560 414 36 64 6 54 -37 -13 -190 -293 -603 -468 -1106 -467
-541 1 -970 200 -1135 527 -106 211 -97 485 26 732 115 233 305 423 543 545
222 114 457 160 683 136 298 -33 531 -141 744 -343 140 -134 229 -265 294
-430 15 -39 32 -73 38 -75 17 -6 13 14 -20 96 -131 331 -435 607 -789 720 -52
16 -104 32 -115 35 -11 3 9 4 45 1 279 -22 556 -193 735 -454 73 -105 105
-139 44 -45 -191 292 -434 460 -731 505 -43 6 -103 11 -135 10 -32 0 -103 2
-159 6 -377 25 -787 -152 -1031 -445 -40 -48 -59 -64 -61 -53 -5 35 86 713 98
727 11 13 190 15 1462 15 1335 0 1449 -1 1455 -16 6 -15 -47 -443 -278 -2269
-48 -382 -196 -1552 -353 -2799 -27 -217 -36 -261 -51 -272 -15 -11 -109 -14
-492 -14 -309 0 -473 -3 -473 -10 0 -7 168 -10 483 -10 l484 0 20 22 c18 20
28 84 82 513 34 270 90 720 126 1000 35 281 100 798 145 1150 44 352 108 854
141 1115 33 261 64 507 69 545 22 188 121 965 126 997 4 29 1 41 -15 57 l-21
21 -1439 0 c-848 0 -1450 -4 -1464 -9 -13 -5 -29 -22 -35 -38 -6 -15 -32 -197
-57 -403 l-46 -375 -53 -105 c-30 -58 -59 -122 -66 -142 -9 -30 -16 -38 -36
-38 -23 0 -24 3 -19 33 3 17 30 228 60 467 99 787 105 829 118 862 22 53 68
99 122 124 l50 24 1468 0 c1210 0 1473 -2 1500 -14 45 -18 95 -78 103 -123 8
-40 3 -83 -111 -983 -36 -283 -97 -765 -136 -1070 -63 -506 -115 -918 -243
-1930 -25 -195 -82 -643 -126 -995 -44 -352 -85 -657 -91 -678 -12 -47 -76
-118 -127 -144 -35 -17 -97 -18 -1245 -23 -792 -3 -1208 -8 -1210 -15 -1 -7
386 -11 1143 -13 1147 -3 1300 0 1339 32 11 8 13 8 8 -1 -5 -9 6 -10 45 -7 58
5 145 44 140 63 -1 7 2 10 6 7 14 -8 45 31 36 45 -4 8 -3 10 5 5 24 -15 44 76
82 379 21 170 48 378 59 460 11 83 36 274 55 425 59 469 113 896 140 1100 14
107 37 287 50 400 14 113 29 237 34 275 6 39 16 108 22 155 7 47 13 113 13
146 1 34 4 57 8 50 4 -6 8 6 8 27 0 21 4 68 10 105 40 276 56 434 41 413 -7
-10 -9 -8 -8 12 2 17 5 22 13 16 8 -6 13 8 17 48 3 32 17 148 32 258 14 110
24 210 22 223 -2 12 -2 20 2 17 3 -3 15 72 28 167 12 95 38 299 57 453 20 154
43 336 52 405 13 96 14 134 5 165 -20 73 -91 127 -186 140 -28 4 -75 14 -105
21 -45 12 -296 14 -1485 13 -786 -1 -1449 -5 -1472 -9z m3080 -69 c-2 -6 2
-11 7 -11 6 0 10 -8 10 -17 -1 -16 -2 -15 -12 2 -7 11 -11 22 -9 24 1 2 -3 8
-11 13 -10 8 -10 9 2 5 8 -2 14 -10 13 -16z m105 -35 c-7 -8 -15 -12 -17 -11
-5 6 10 25 20 25 5 0 4 -6 -3 -14z m-14 -42 c3 -8 2 -12 -4 -9 -6 3 -10 10
-10 16 0 14 7 11 14 -7z m-57 -71 c-3 -10 -5 -2 -5 17 0 19 2 27 5 18 2 -10 2
-26 0 -35z m-20 -175 c-3 -8 -6 -5 -6 6 -1 11 2 17 5 13 3 -3 4 -12 1 -19z
m-10 -80 c-3 -7 -5 -2 -5 12 0 14 2 19 5 13 2 -7 2 -19 0 -25z m90 -110 c-3
-8 -6 -5 -6 6 -1 11 2 17 5 13 3 -3 4 -12 1 -19z m-120 -170 c-3 -7 -5 -2 -5
12 0 14 2 19 5 13 2 -7 2 -19 0 -25z m-30 -195 c-3 -10 -5 -4 -5 12 0 17 2 24
5 18 2 -7 2 -21 0 -30z m-10 -85 c-3 -8 -6 -5 -6 6 -1 11 2 17 5 13 3 -3 4
-12 1 -19z m-77 -575 c-11 -17 -11 -17 -6 0 3 10 7 28 7 40 2 22 2 22 6 0 2
-12 -1 -30 -7 -40z m-3363 31 c-3 -3 -12 -4 -19 -1 -8 3 -5 6 6 6 11 1 17 -2
13 -5z m90 -36 c-3 -8 -6 -5 -6 6 -1 11 2 17 5 13 3 -3 4 -12 1 -19z m-10 -50
c-3 -8 -6 -5 -6 6 -1 11 2 17 5 13 3 -3 4 -12 1 -19z m-10 -70 c-3 -8 -6 -5
-6 6 -1 11 2 17 5 13 3 -3 4 -12 1 -19z m3280 -15 c-3 -10 -5 -4 -5 12 0 17 2
24 5 18 2 -7 2 -21 0 -30z m-10 -55 c-3 -8 -6 -5 -6 6 -1 11 2 17 5 13 3 -3 4
-12 1 -19z m-3270 -105 c-3 -10 -5 -4 -5 12 0 17 2 24 5 18 2 -7 2 -21 0 -30z
m3260 0 c-3 -10 -5 -4 -5 12 0 17 2 24 5 18 2 -7 2 -21 0 -30z m-3250 -65 c-3
-7 -5 -2 -5 12 0 14 2 19 5 13 2 -7 2 -19 0 -25z m3240 0 c-3 -7 -5 -2 -5 12
0 14 2 19 5 13 2 -7 2 -19 0 -25z m-10 -70 c-3 -8 -6 -5 -6 6 -1 11 2 17 5 13
3 -3 4 -12 1 -19z m-60 -480 c-3 -8 -6 -5 -6 6 -1 11 2 17 5 13 3 -3 4 -12 1
-19z m-20 -140 c-3 -8 -6 -5 -6 6 -1 11 2 17 5 13 3 -3 4 -12 1 -19z m50 -320
c-3 -8 -6 -5 -6 6 -1 11 2 17 5 13 3 -3 4 -12 1 -19z m-110 -170 c-3 -7 -5 -2
-5 12 0 14 2 19 5 13 2 -7 2 -19 0 -25z m-10 -90 c-3 -8 -6 -5 -6 6 -1 11 2
17 5 13 3 -3 4 -12 1 -19z m-10 -60 c-3 -8 -6 -5 -6 6 -1 11 2 17 5 13 3 -3 4
-12 1 -19z m-82 -693 c-3 -26 -8 -45 -11 -43 -2 3 -1 26 2 52 4 25 9 44 12 42
2 -3 1 -26 -3 -51z m-48 -357 c-3 -7 -5 -2 -5 12 0 14 2 19 5 13 2 -7 2 -19 0
-25z m-10 -90 c-3 -8 -6 -5 -6 6 -1 11 2 17 5 13 3 -3 4 -12 1 -19z m0 -230
c-3 -7 -5 -2 -5 12 0 14 2 19 5 13 2 -7 2 -19 0 -25z m-40 -90 c-3 -8 -6 -5
-6 6 -1 11 2 17 5 13 3 -3 4 -12 1 -19z m-40 -320 c-3 -7 -5 -2 -5 12 0 14 2
19 5 13 2 -7 2 -19 0 -25z m-10 -50 c-3 -8 -6 -5 -6 6 -1 11 2 17 5 13 3 -3 4
-12 1 -19z m-20 -180 c-3 -8 -6 -5 -6 6 -1 11 2 17 5 13 3 -3 4 -12 1 -19z
m-10 -85 c-3 -10 -5 -4 -5 12 0 17 2 24 5 18 2 -7 2 -21 0 -30z m-10 -75 c-3
-7 -5 -2 -5 12 0 14 2 19 5 13 2 -7 2 -19 0 -25z m-30 -240 c-3 -7 -5 -2 -5
12 0 14 2 19 5 13 2 -7 2 -19 0 -25z m23 -208 c0 -11 -39 -34 -47 -27 -2 3 5
8 16 12 12 3 19 11 16 16 -4 5 -1 9 4 9 6 0 11 -4 11 -10z m-108 -35 c0 -5 -5
-10 -11 -11 -8 -2 -7 -1 0 3 8 4 7 8 -2 15 -11 8 -11 9 -1 6 8 -2 14 -8 14
-13z"/>
<path d="M5699 6135 c-14 -21 -20 -73 -10 -80 6 -3 14 0 17 8 7 20 1 85 -7 72z"/>
<path d="M1525 6039 c-89 -14 -187 -43 -183 -54 2 -5 8 -8 13 -7 144 50 408
61 550 23 265 -70 441 -235 477 -448 20 -120 -13 -253 -90 -366 l-30 -43 90
-138 c49 -76 88 -139 86 -141 -2 -2 -73 17 -158 41 -212 61 -216 61 -278 30
-29 -15 -52 -31 -52 -36 0 -15 17 -12 68 13 l47 24 176 -47 c235 -64 239 -64
239 -48 0 7 -43 77 -94 156 l-94 143 34 56 c66 110 79 155 79 288 0 118 -1
121 -38 199 -75 158 -243 283 -452 337 -92 24 -295 33 -390 18z"/>
<path d="M5544 6018 c-5 -9 3 -12 49 -22 19 -5 27 -2 27 8 0 15 -68 28 -76 14z"/>
<path d="M5740 5981 c0 -11 25 -21 56 -21 27 0 32 15 8 24 -24 9 -64 7 -64 -3z"/>
<path d="M5654 5895 c-7 -39 2 -58 16 -35 13 20 13 70 0 70 -5 0 -12 -16 -16
-35z"/>
<path d="M1117 5889 c-17 -10 -23 -29 -9 -29 5 0 16 6 27 13 22 17 7 29 -18
16z"/>
<path d="M972 5769 c-131 -131 -204 -307 -187 -453 14 -119 54 -204 140 -295
92 -98 203 -161 357 -203 111 -30 344 -32 461 -5 42 10 77 23 77 28 0 13 -22
11 -113 -6 -100 -19 -273 -19 -369 -1 -369 73 -588 345 -512 639 24 95 78 190
149 266 36 37 65 71 65 75 0 16 -21 2 -68 -45z"/>
<path d="M1123 5503 c76 -2 198 -2 270 0 73 1 11 3 -138 3 -148 0 -208 -2
-132 -3z"/>
<path d="M5531 5441 c18 -34 34 -59 36 -57 6 5 -46 104 -58 112 -6 3 5 -22 22
-55z"/>
<path d="M1758 5483 c79 -2 205 -2 280 0 75 1 11 3 -143 3 -154 0 -216 -2
-137 -3z"/>
<path d="M5576 5350 c4 -14 13 -38 21 -53 20 -39 26 -92 9 -78 -19 16 -109
-32 -149 -79 -49 -58 -70 -127 -65 -213 3 -40 12 -87 22 -105 23 -45 86 -113
97 -106 5 3 8 0 7 -7 -4 -17 77 -48 126 -48 47 -1 117 19 110 30 -3 5 1 6 9 3
23 -9 104 82 128 144 24 64 23 169 -2 199 -8 9 -12 17 -10 17 8 2 -11 46 -20
46 -5 0 -9 6 -9 13 0 18 -74 79 -113 94 -18 6 -49 14 -69 18 -33 5 -38 10 -53
53 -8 26 -22 58 -31 72 l-15 25 7 -25z m321 -412 c-3 -8 -6 -5 -6 6 -1 11 2
17 5 13 3 -3 4 -12 1 -19z m-46 -119 c-5 -13 -10 -19 -10 -12 -1 15 10 45 15
40 3 -2 0 -15 -5 -28z m-91 -103 c0 -2 -9 -6 -20 -9 -11 -3 -18 -1 -14 4 5 9
34 13 34 5z"/>
<path d="M1043 5353 c48 -2 125 -2 170 0 45 1 6 3 -88 3 -93 0 -130 -2 -82 -3z"/>
<path d="M1431 5356 c11 -10 139 -16 139 -6 0 6 -29 10 -72 10 -39 0 -69 -2
-67 -4z"/>
<path d="M1738 5343 c79 -2 205 -2 280 0 75 1 11 3 -143 3 -154 0 -216 -2
-137 -3z"/>
<path d="M1085 5230 c112 -8 762 -13 754 -6 -2 2 -197 6 -434 8 -236 3 -380 2
-320 -2z"/>
<path d="M1950 5220 c84 -12 208 -12 190 0 -8 5 -67 9 -130 8 -97 -1 -107 -2
-60 -8z"/>
<path d="M3455 5133 c-44 -23 -74 -52 -103 -103 -26 -43 -27 -51 -27 -190 0
-141 1 -147 30 -205 42 -85 73 -99 255 -122 209 -26 851 -26 1055 1 176 22
208 38 249 120 26 51 30 72 34 165 8 184 -29 279 -128 329 l-44 22 -646 0
c-568 -1 -649 -3 -675 -17z m1071 -238 c10 -8 14 -15 7 -15 -6 0 -15 5 -18 10
-9 14 -48 12 -65 -2 -12 -11 -12 -10 -1 5 16 21 50 22 77 2z m-99 -67 c-3 -8
-6 -5 -6 6 -1 11 2 17 5 13 3 -3 4 -12 1 -19z m113 -32 c0 -2 -7 -7 -16 -10
-8 -3 -12 -2 -9 4 6 10 25 14 25 6z m-827 -23 c-7 -2 -19 -2 -25 0 -7 3 -2 5
12 5 14 0 19 -2 13 -5z"/>
<path d="M5410 4639 c-52 -72 -121 -111 -296 -169 -84 -27 -158 -50 -164 -50
-5 0 -10 7 -10 15 0 8 -4 15 -9 15 -41 0 -297 -32 -302 -38 -3 -4 -4 -29 0
-57 l6 -50 62 3 c34 2 104 9 155 15 l93 12 3 35 c2 28 0 32 -8 20 -8 -11 -10
-11 -8 -2 2 8 66 34 143 59 223 71 291 108 350 193 40 58 27 57 -15 -1z"/>
<path d="M1291 4419 c-129 -22 -254 -93 -358 -203 -58 -62 -84 -100 -123 -180
-61 -128 -77 -192 -96 -399 -8 -92 -21 -188 -29 -212 -7 -25 -43 -94 -79 -155
-79 -131 -96 -174 -96 -249 1 -72 26 -127 80 -174 191 -163 512 -9 687 328 55
108 74 174 127 447 55 283 68 329 107 373 27 30 93 64 105 53 2 -3 -2 -22 -9
-44 -38 -108 -26 -220 36 -323 18 -29 70 -89 116 -133 l84 -79 -11 -64 c-14
-84 -56 -176 -112 -246 -66 -82 -101 -108 -191 -140 -146 -52 -407 -188 -401
-209 1 -6 -2 -9 -7 -5 -6 3 -33 -11 -61 -31 -50 -36 -63 -51 -34 -40 9 3 12 2
9 -5 -4 -6 -14 -8 -22 -5 -24 10 -228 -206 -219 -231 3 -8 2 -12 -3 -8 -10 5
-48 -40 -92 -110 -14 -22 -38 -59 -53 -82 -16 -24 -25 -47 -20 -54 4 -7 3 -10
-3 -6 -7 4 -34 -40 -68 -109 -46 -93 -55 -118 -44 -125 11 -7 11 -9 -2 -9 -34
0 -80 -181 -82 -315 0 -72 4 -100 22 -140 34 -78 51 -100 63 -84 7 10 8 8 3
-8 -4 -16 4 -29 38 -57 27 -22 51 -34 60 -30 8 3 18 1 22 -5 4 -7 -1 -8 -12
-4 -14 4 -15 3 -7 -6 6 -6 42 -23 80 -36 108 -38 298 -31 432 18 28 10 30 13
15 19 -13 6 -11 7 7 3 14 -2 33 -5 44 -5 17 0 18 -7 14 -93 -5 -85 -20 -145
-53 -222 -34 -78 -54 -148 -60 -207 -4 -45 -2 -59 5 -48 8 12 9 9 5 -10 -9
-39 31 -89 95 -121 73 -37 274 -92 301 -84 13 4 19 3 15 -3 -3 -5 25 -14 67
-21 171 -26 300 -33 537 -27 261 6 350 13 350 27 0 4 6 6 14 3 21 -8 163 31
215 58 25 13 53 36 65 51 l20 27 -35 109 c-19 60 -38 106 -43 103 -5 -3 -6 0
-2 6 3 6 -2 66 -13 134 -30 190 -38 278 -27 286 21 13 49 8 53 -8 7 -25 78
-63 106 -55 16 5 18 4 8 -3 -11 -8 -6 -14 23 -26 61 -26 113 -37 143 -31 20 4
23 3 9 -3 -14 -6 10 -14 85 -27 79 -14 150 -19 295 -18 105 0 198 4 205 9 8 5
21 7 30 6 20 -3 193 26 417 70 113 22 158 35 145 40 -12 6 -10 7 10 3 74 -14
500 135 514 181 2 6 -8 23 -21 37 -21 23 -22 27 -8 27 10 0 73 -47 141 -104
l124 -104 126 -7 c69 -3 137 -7 151 -8 23 -2 25 1 22 33 -5 59 -51 92 -173
125 -60 15 -68 21 -84 54 -16 34 -16 36 1 46 37 21 94 79 87 86 -5 5 -80 25
-168 44 l-159 36 -71 -16 c-38 -9 -79 -18 -89 -20 -12 -2 -27 6 -38 21 -11 13
-23 22 -28 19 -4 -3 -24 -7 -44 -9 -20 -3 -51 -8 -68 -11 -72 -14 -495 44
-748 102 -63 14 -123 26 -132 27 -10 0 -18 3 -18 7 0 10 -80 30 -92 23 -6 -4
-8 -3 -5 3 4 6 -13 19 -36 29 -149 66 -245 177 -338 391 -29 67 -56 120 -60
117 -5 -3 -6 1 -3 9 3 8 -18 56 -46 106 -51 91 -67 110 -55 69 5 -18 4 -20 -4
-8 -6 8 -8 22 -6 31 6 19 -75 127 -141 189 -128 118 -248 190 -416 250 -91 33
-122 57 -139 108 -16 48 -6 151 23 237 20 59 28 70 48 73 14 2 48 9 76 17 69
20 80 42 65 129 -6 36 -14 72 -17 79 -2 7 9 31 26 52 16 21 30 41 30 46 0 5
-13 23 -29 41 -39 45 -84 134 -84 166 0 15 6 46 13 69 11 39 10 47 -11 90 -21
43 -33 52 -104 88 -71 35 -89 40 -171 43 -107 5 -171 -10 -256 -62 l-57 -34
-22 41 c-79 152 -234 226 -408 196z m1010 -496 c11 -25 36 -68 55 -95 l36 -49
-26 -38 -27 -39 16 -83 c15 -83 15 -84 -5 -101 -23 -19 -82 -38 -117 -38 -37
0 -67 -69 -93 -210 -17 -95 14 -180 82 -226 15 -10 28 -22 28 -26 0 -12 -108
-47 -207 -67 -132 -26 -299 -36 -396 -22 -120 17 -120 17 -25 97 143 120 221
253 235 404 5 57 11 71 45 109 21 24 41 55 44 68 6 22 10 23 49 17 46 -6 85 1
85 17 0 6 -14 7 -33 4 -53 -10 -80 7 -100 62 -21 58 -13 90 28 117 23 15 40
17 96 12 42 -5 76 -3 88 3 11 6 41 38 67 71 26 33 49 60 51 60 2 0 13 -21 24
-47z m-742 -906 c-2 -1 -13 -9 -24 -17 -19 -14 -19 -14 -6 3 7 9 18 17 24 17
6 0 8 -1 6 -3z m735 -21 c-3 -9 -10 -16 -15 -16 -5 0 -4 9 3 20 14 22 21 20
12 -4z m-29 -26 c3 -6 -1 -7 -9 -4 -18 7 -21 14 -7 14 6 0 13 -4 16 -10z m-50
-10 c-3 -5 -12 -10 -18 -10 -7 0 -6 4 3 10 19 12 23 12 15 0z m-50 -20 c3 -5
1 -10 -4 -10 -6 0 -11 5 -11 10 0 6 2 10 4 10 3 0 8 -4 11 -10z m-48 -16 c-3
-3 -12 -4 -19 -1 -8 3 -5 6 6 6 11 1 17 -2 13 -5z m-797 -19 c-14 -8 -29 -14
-35 -14 -5 0 1 6 15 14 14 8 30 14 35 14 6 0 -1 -6 -15 -14z m690 -5 c0 -5 -2
-10 -4 -10 -3 0 -8 5 -11 10 -3 6 -1 10 4 10 6 0 11 -4 11 -10z m87 4 c-3 -3
-12 -4 -19 -1 -8 3 -5 6 6 6 11 1 17 -2 13 -5z m-400 -10 c-3 -3 -12 -4 -19
-1 -8 3 -5 6 6 6 11 1 17 -2 13 -5z m176 -1 c-7 -2 -19 -2 -25 0 -7 3 -2 5 12
5 14 0 19 -2 13 -5z m-683 -57 c0 -2 -7 -7 -16 -10 -8 -3 -12 -2 -9 4 6 10 25
14 25 6z m1544 -72 c3 -8 2 -12 -4 -9 -6 3 -10 10 -10 16 0 14 7 11 14 -7z
m114 -149 c-3 -3 -9 2 -12 12 -6 14 -5 15 5 6 7 -7 10 -15 7 -18z m0 -40 c-3
-3 -9 2 -12 12 -6 14 -5 15 5 6 7 -7 10 -15 7 -18z m-2018 -59 c0 -3 -4 -8
-10 -11 -5 -3 -10 -1 -10 4 0 6 5 11 10 11 6 0 10 -2 10 -4z m15 -25 c-3 -6
-11 -11 -16 -11 -5 0 -4 6 3 14 14 16 24 13 13 -3z m295 -121 c0 -5 -7 -7 -15
-4 -8 4 -15 8 -15 10 0 2 7 4 15 4 8 0 15 -4 15 -10z m-43 -22 c-3 -8 -6 -5
-6 6 -1 11 2 17 5 13 3 -3 4 -12 1 -19z m50 -20 c-3 -8 -6 -5 -6 6 -1 11 2 17
5 13 3 -3 4 -12 1 -19z m1831 -23 c-3 -3 -9 2 -12 12 -6 14 -5 15 5 6 7 -7 10
-15 7 -18z m-1891 -87 c-2 -13 -4 -5 -4 17 -1 22 1 32 4 23 2 -10 2 -28 0 -40z
m90 30 c-3 -8 -6 -5 -6 6 -1 11 2 17 5 13 3 -3 4 -12 1 -19z m1045 -140 c-8
-8 -9 -4 -5 13 4 13 8 18 11 10 2 -7 -1 -18 -6 -23z m56 1 c-3 -8 -7 -3 -11
10 -4 17 -3 21 5 13 5 -5 8 -16 6 -23z m-1191 -46 c-3 -10 -5 -4 -5 12 0 17 2
24 5 18 2 -7 2 -21 0 -30z m-30 -15 c-3 -7 -5 -2 -5 12 0 14 2 19 5 13 2 -7 2
-19 0 -25z m80 -100 c-3 -8 -6 -5 -6 6 -1 11 2 17 5 13 3 -3 4 -12 1 -19z
m-40 -65 c-3 -10 -5 -4 -5 12 0 17 2 24 5 18 2 -7 2 -21 0 -30z m1216 -10 c9
-24 15 -43 12 -43 -6 0 -35 69 -35 83 0 15 5 7 23 -40z m-1206 -50 c-3 -10 -5
-4 -5 12 0 17 2 24 5 18 2 -7 2 -21 0 -30z m10 -45 c-3 -8 -6 -5 -6 6 -1 11 2
17 5 13 3 -3 4 -12 1 -19z m64 -49 c-5 -13 -10 -19 -10 -12 -1 15 10 45 15 40
3 -2 0 -15 -5 -28z m-54 -1 c-3 -8 -6 -5 -6 6 -1 11 2 17 5 13 3 -3 4 -12 1
-19z m1236 -33 c-3 -9 -8 -14 -10 -11 -3 3 -2 9 2 15 9 16 15 13 8 -4z m31 -1
c3 -8 2 -12 -4 -9 -6 3 -10 10 -10 16 0 14 7 11 14 -7z m-1196 -39 c-3 -3 -9
2 -12 12 -6 14 -5 15 5 6 7 -7 10 -15 7 -18z m3693 0 c155 -35 152 -34 139
-50 -6 -7 -31 -23 -55 -34 l-43 -20 29 -55 c26 -48 36 -57 72 -66 130 -34 187
-65 187 -101 0 -19 -5 -19 -132 -13 l-133 7 -115 95 c-63 52 -123 102 -133
111 -15 12 -22 13 -38 3 -13 -9 -19 -9 -19 -1 0 6 -13 31 -30 56 -37 54 -37
61 -2 69 15 3 41 10 57 14 52 14 99 11 216 -15z m-3724 -67 c-3 -8 -6 -5 -6 6
-1 11 2 17 5 13 3 -3 4 -12 1 -19z m1347 -24 c3 -8 2 -12 -4 -9 -6 3 -10 10
-10 16 0 14 7 11 14 -7z m-1337 -16 c-3 -8 -6 -5 -6 6 -1 11 2 17 5 13 3 -3 4
-12 1 -19z m1292 -8 c11 -24 11 -24 -3 -6 -9 11 -16 24 -16 30 0 12 5 7 19
-24z m91 16 c0 -3 -4 -8 -10 -11 -5 -3 -10 -1 -10 4 0 6 5 11 10 11 6 0 10 -2
10 -4z m-1335 -26 c-3 -5 -11 -10 -16 -10 -6 0 -7 5 -4 10 3 6 11 10 16 10 6
0 7 -4 4 -10z m1364 -84 c-3 -3 -11 5 -18 17 -13 21 -12 21 5 5 10 -10 16 -20
13 -22z m30 -22 c-6 -7 -16 -11 -23 -7 -7 5 -5 9 7 11 9 2 14 8 11 14 -4 7 -2
8 5 4 9 -6 9 -11 0 -22z m-49 -40 c0 -4 -9 3 -20 16 -11 13 -20 27 -20 33 0 5
9 -2 20 -16 11 -14 20 -29 20 -33z m2040 16 c-8 -5 -19 -10 -25 -10 -5 0 -3 5
5 10 8 5 20 10 25 10 6 0 3 -5 -5 -10z m-1930 -62 c0 -6 -6 -5 -15 2 -8 7 -15
14 -15 16 0 2 7 1 15 -2 8 -4 15 -11 15 -16z m-1315 -728 c-3 -5 -12 -10 -18
-10 -7 0 -6 4 3 10 19 12 23 12 15 0z m392 -86 c-3 -3 -12 -4 -19 -1 -8 3 -5
6 6 6 11 1 17 -2 13 -5z m580 0 c-3 -3 -12 -4 -19 -1 -8 3 -5 6 6 6 11 1 17
-2 13 -5z"/>
<path d="M3983 3969 c-89 -15 -207 -70 -242 -113 -7 -9 -32 -21 -55 -27 -73
-19 -262 -153 -372 -264 -85 -85 -108 -116 -145 -190 -44 -88 -44 -89 -44
-199 0 -101 3 -116 28 -167 50 -104 180 -195 322 -228 l51 -12 101 -272 100
-272 49 -3 c45 -3 53 -8 115 -70 81 -81 151 -125 261 -163 376 -129 787 100
878 489 l12 52 91 0 c354 0 591 98 675 277 24 53 27 69 27 173 0 81 -5 131
-17 170 -53 168 -239 367 -451 480 -67 36 -83 41 -109 34 -46 -14 -72 -54 -64
-99 6 -29 16 -41 53 -63 274 -160 408 -317 421 -492 11 -152 -65 -233 -260
-280 -84 -20 -317 -45 -326 -35 -3 3 9 81 26 173 49 255 64 395 60 577 l-3
160 -37 78 c-61 128 -177 230 -312 274 -43 14 -106 17 -416 19 -201 1 -388 -2
-417 -7z m829 -39 c159 -49 273 -166 322 -329 21 -71 21 -242 0 -421 -14 -126
-78 -477 -88 -487 -9 -9 -196 9 -196 19 0 40 -92 108 -147 108 -26 0 -30 6
-61 93 -19 50 -71 191 -116 312 l-82 220 -427 3 -427 2 0 54 c0 189 152 376
350 432 32 9 154 12 426 13 354 1 387 0 446 -19z m-1249 -422 c-3 -29 -7 -54
-8 -56 -2 -2 -28 -2 -59 0 l-57 3 63 53 c34 28 63 52 65 52 1 0 -1 -24 -4 -52z
m875 -115 c5 -16 53 -145 106 -289 53 -144 96 -266 96 -273 0 -8 -37 -11 -122
-11 -128 -1 -144 -5 -166 -47 -19 -35 -14 -65 15 -95 l27 -28 148 0 148 0 0
-29 0 -29 -104 -4 c-83 -2 -108 -7 -124 -21 -44 -40 -34 -115 19 -142 37 -20
209 -19 264 0 22 8 43 11 46 7 3 -4 20 -46 37 -94 l31 -88 -557 0 -557 0 -199
538 c-109 295 -207 558 -217 585 l-19 47 559 0 559 0 10 -27z m-1044 -267 c31
-82 54 -151 51 -154 -3 -3 -30 12 -60 32 -89 62 -118 158 -78 257 19 50 16 56
87 -135z m1617 -599 c4 -1 0 -27 -7 -57 -16 -66 -95 -224 -109 -221 -5 2 -27
49 -48 105 l-38 101 22 41 22 41 76 -4 c42 -3 79 -5 82 -6z m-193 -371 c-77
-72 -189 -134 -289 -161 -94 -24 -278 -18 -369 14 -85 30 -193 97 -255 160
l-49 51 514 0 515 -1 -67 -63z"/>
<path d="M5396 2069 c-10 -28 -11 -64 -1 -67 13 -4 26 60 15 72 -6 6 -11 4
-14 -5z"/>
<path d="M5244 1958 c-5 -9 3 -12 49 -22 19 -5 27 -2 27 8 0 15 -68 28 -76 14z"/>
<path d="M5450 1921 c0 -11 25 -21 51 -21 23 0 25 15 3 24 -23 9 -54 7 -54 -3z"/>
<path d="M5357 1833 c-7 -40 -4 -49 12 -38 13 7 15 75 2 75 -4 0 -11 -17 -14
-37z"/>
</g>
</svg>
