<?xml version="1.0" standalone="no"?>
<!DOCTYPE svg PUBLIC "-//W3C//DTD SVG 20010904//EN"
 "http://www.w3.org/TR/2001/REC-SVG-20010904/DTD/svg10.dtd">
<svg version="1.0" xmlns="http://www.w3.org/2000/svg"
 width="735.000000pt" height="647.000000pt" viewBox="0 0 735.000000 647.000000"
 preserveAspectRatio="xMidYMid meet">

<g transform="translate(0.000000,647.000000) scale(0.100000,-0.100000)"
fill="#000000" stroke="none">
<path d="M4587 6051 c-13 -14 -253 -312 -532 -661 -279 -349 -517 -645 -529
-657 -12 -12 -41 -49 -66 -82 -28 -37 -53 -60 -65 -61 -14 0 -16 -3 -7 -8 9
-6 -2 -27 -42 -77 l-55 -69 23 -31 c12 -16 64 -87 116 -157 56 -78 99 -128
109 -127 13 1 13 2 1 6 -8 2 -58 62 -110 134 -139 190 -129 173 -95 165 17 -3
125 -20 240 -36 116 -17 219 -32 230 -35 11 -3 40 -33 65 -67 25 -35 71 -99
102 -143 l58 -80 -32 -7 c-33 -7 -33 -7 4 -4 21 1 39 -3 41 -9 5 -13 -4 -24
131 155 69 92 125 158 139 162 20 5 20 6 2 7 -13 1 -53 46 -120 138 -129 176
-124 167 -89 160 16 -3 173 -26 349 -52 176 -25 333 -50 350 -54 30 -7 30 -8
42 -107 7 -54 14 -113 17 -131 4 -28 2 -32 -22 -36 l-27 -4 26 -2 c26 -1 39
-21 39 -64 0 -17 167 -253 219 -309 16 -18 34 -27 50 -27 25 2 25 2 -2 6 -23
4 -49 32 -137 151 -60 81 -105 148 -100 150 8 3 480 -64 502 -71 3 -1 56 -68
116 -149 106 -143 109 -147 83 -151 -23 -4 -22 -4 7 -6 30 -1 32 1 31 32 0 21
-3 26 -7 15 -5 -13 -31 16 -108 120 -56 75 -104 146 -107 157 -4 11 -27 148
-52 305 -49 299 -60 368 -175 1074 -39 241 -69 440 -67 443 5 5 187 -239 205
-276 9 -19 12 -20 9 -6 -2 11 -54 89 -116 172 -86 117 -118 153 -139 157 -15
3 -121 19 -237 36 -115 17 -218 32 -227 34 -9 2 -27 -8 -41 -23z m193 -1060
c0 -32 -1 -33 -32 -28 -18 3 -117 18 -220 34 -104 15 -188 30 -188 34 0 7 326
446 359 483 15 17 18 1 48 -235 18 -140 32 -269 33 -288z m-504 -641 c-136
-183 -220 -289 -227 -285 -4 3 -56 71 -114 150 l-106 144 118 155 117 154 112
-151 c91 -124 110 -155 100 -167z"/>
<path d="M2512 5838 c-7 -7 -12 -16 -12 -22 0 -5 6 -2 13 7 8 11 31 17 72 20
l60 3 -60 2 c-37 1 -66 -3 -73 -10z"/>
<path d="M2680 5836 c0 -2 7 -6 15 -10 8 -3 15 -1 15 4 0 6 -7 10 -15 10 -8 0
-15 -2 -15 -4z"/>
<path d="M6138 5713 c-28 -101 -354 -1238 -373 -1303 -4 -11 -16 -15 -38 -14
-25 1 -26 0 -4 -3 15 -2 27 -10 27 -17 0 -15 -30 -117 -38 -131 -3 -5 -7 -18
-8 -30 -1 -11 -10 -46 -19 -77 l-16 -57 118 -158 c105 -141 121 -158 148 -159
29 -1 29 -1 2 3 -22 4 -49 33 -136 151 -60 81 -106 148 -101 150 9 3 426 -55
467 -65 14 -3 60 -54 120 -136 54 -72 104 -138 111 -147 35 -39 -9 24 -100
149 -54 73 -98 137 -98 142 0 5 75 269 166 587 92 317 203 707 249 865 l82
288 117 -158 c64 -87 116 -154 116 -150 0 6 -84 123 -204 283 l-30 41 -231 33
c-126 18 -244 35 -260 37 l-31 5 -36 -129z"/>
<path d="M2486 5774 c-4 -14 -5 -28 -3 -31 3 -2 8 8 11 23 4 14 5 28 3 31 -3
2 -8 -8 -11 -23z"/>
<path d="M2714 5735 c1 -46 5 -60 16 -61 8 0 10 1 3 3 -7 3 -14 29 -16 61 l-3
57 0 -60z"/>
<path d="M2118 5716 c-84 -58 -86 -60 -80 -119 3 -37 12 -62 32 -88 21 -26 26
-39 18 -52 -18 -33 0 -17 26 23 l27 41 -51 60 c-27 34 -48 65 -44 70 9 15 122
89 136 89 7 0 37 -16 66 -35 28 -20 52 -33 52 -31 0 10 -105 76 -120 75 -8 0
-36 -15 -62 -33z"/>
<path d="M2925 5679 c-48 -27 -78 -38 -95 -34 -24 4 -24 4 -3 -7 18 -9 34 -4
97 31 41 22 81 41 88 41 7 -1 38 -24 68 -52 l55 -51 -67 -61 -66 -61 18 -40
c10 -22 21 -48 24 -57 4 -12 15 -18 33 -17 l28 2 -27 4 c-41 6 -35 35 17 81
44 38 45 41 45 98 l0 59 -59 53 c-33 28 -65 52 -73 52 -7 -1 -44 -19 -83 -41z"/>
<path d="M2440 5690 c-23 -7 -23 -8 -3 -9 12 -1 25 4 28 9 3 6 5 10 3 9 -2 -1
-14 -5 -28 -9z"/>
<path d="M2320 5656 c4 -4 21 -4 37 2 28 10 28 10 -9 8 -21 0 -33 -5 -28 -10z"/>
<path d="M2770 5660 c8 -5 20 -10 25 -10 6 0 3 5 -5 10 -8 5 -19 10 -25 10 -5
0 -3 -5 5 -10z"/>
<path d="M5352 5625 c0 -16 2 -22 5 -12 2 9 2 23 0 30 -3 6 -5 -1 -5 -18z"/>
<path d="M2451 5574 c-169 -45 -288 -186 -266 -315 l7 -41 23 57 c13 32 34 69
47 82 157 170 482 165 608 -9 17 -22 30 -47 30 -55 0 -7 5 -13 11 -13 16 0 2
85 -22 137 -62 129 -267 203 -438 157z"/>
<path d="M5362 5565 c0 -16 2 -22 5 -12 2 9 2 23 0 30 -3 6 -5 -1 -5 -18z"/>
<path d="M5372 5510 c-1 -14 3 -43 7 -65 6 -26 9 -31 9 -15 1 14 -3 43 -7 65
-6 26 -9 31 -9 15z"/>
<path d="M2025 5420 l-50 -7 47 -1 c26 -1 50 3 53 8 3 6 5 9 3 8 -2 0 -25 -4
-53 -8z"/>
<path d="M6906 5404 c-4 -14 -5 -28 -3 -31 3 -2 8 8 11 23 4 14 5 28 3 31 -3
2 -8 -8 -11 -23z"/>
<path d="M1876 5402 c-2 -4 11 -6 30 -4 19 2 34 6 34 8 0 8 -59 4 -64 -4z"/>
<path d="M5392 5385 c-1 -11 3 -38 7 -60 7 -34 9 -35 9 -10 0 35 -15 101 -16
70z"/>
<path d="M1856 5319 c-4 -33 -4 -85 -1 -114 8 -59 4 -56 105 -70 120 -16 123
-22 49 -92 l-51 -47 7 -55 c6 -48 12 -59 52 -96 l46 -41 -31 -43 c-18 -24 -32
-49 -32 -54 0 -6 14 10 30 37 24 38 34 46 50 41 13 -4 47 8 99 36 l78 43 61
-23 c55 -21 60 -25 64 -57 4 -32 2 -34 -27 -35 l-30 -1 30 -7 c23 -5 31 -13
36 -39 4 -18 8 -35 10 -37 4 -3 151 -8 186 -6 6 1 15 10 18 21 3 11 14 20 23
20 13 0 14 2 4 9 -10 6 -11 17 -2 53 l12 46 69 17 70 17 67 -46 c37 -25 72
-46 77 -46 6 0 27 11 47 25 20 14 44 25 53 25 9 0 14 4 10 9 -3 6 4 15 15 21
16 9 20 21 20 68 0 49 -4 63 -30 94 -26 32 -29 40 -19 61 12 28 47 37 139 37
67 0 75 5 85 49 12 56 8 193 -7 207 -7 7 -38 15 -68 18 l-55 5 60 -12 60 -12
-3 -65 c-2 -36 -7 -69 -12 -74 -6 -6 -50 -12 -99 -14 l-90 -4 -35 -56 -36 -55
24 -31 c14 -17 37 -45 51 -63 l26 -32 -53 -39 c-91 -68 -86 -68 -166 -11 l-71
50 -53 -16 c-95 -29 -92 -27 -112 -104 l-19 -72 -96 3 -96 3 -3 76 -3 76 -69
26 -68 27 -74 -40 c-40 -22 -80 -40 -88 -40 -8 1 -40 23 -70 50 l-55 50 67 63
66 62 -23 49 c-27 57 -33 61 -100 70 -27 4 -65 10 -83 13 l-33 5 7 64 c3 35 4
64 1 64 -2 0 -8 -27 -11 -61z"/>
<path d="M6886 5334 c-4 -14 -5 -28 -3 -31 3 -2 8 8 11 23 4 14 5 28 3 31 -3
2 -8 -8 -11 -23z"/>
<path d="M6866 5264 c-4 -14 -5 -28 -3 -31 3 -2 8 8 11 23 4 14 5 28 3 31 -3
2 -8 -8 -11 -23z"/>
<path d="M5412 5255 c0 -16 2 -22 5 -12 2 9 2 23 0 30 -3 6 -5 -1 -5 -18z"/>
<path d="M2901 5254 c0 -11 3 -14 6 -6 3 7 2 16 -1 19 -3 4 -6 -2 -5 -13z"/>
<path d="M2875 5194 c-11 -20 -42 -56 -70 -81 -27 -26 -41 -41 -29 -35 39 21
134 135 122 147 -2 3 -12 -12 -23 -31z"/>
<path d="M5422 5195 c0 -16 2 -22 5 -12 2 9 2 23 0 30 -3 6 -5 -1 -5 -18z"/>
<path d="M6846 5194 c-4 -14 -5 -28 -3 -31 3 -2 8 8 11 23 4 14 5 28 3 31 -3
2 -8 -8 -11 -23z"/>
<path d="M2200 5203 c0 -18 57 -90 94 -118 37 -28 125 -65 154 -65 9 0 -13 11
-49 23 -81 28 -132 65 -170 125 -16 25 -29 41 -29 35z"/>
<path d="M5432 5135 c0 -16 2 -22 5 -12 2 9 2 23 0 30 -3 6 -5 -1 -5 -18z"/>
<path d="M6821 5104 c0 -11 3 -14 6 -6 3 7 2 16 -1 19 -3 4 -6 -2 -5 -13z"/>
<path d="M5442 5070 c0 -14 2 -19 5 -12 2 6 2 18 0 25 -3 6 -5 1 -5 -13z"/>
<path d="M6806 5054 c-4 -14 -5 -28 -3 -31 3 -2 8 8 11 23 4 14 5 28 3 31 -3
2 -8 -8 -11 -23z"/>
<path d="M2685 5045 c-16 -8 -23 -14 -15 -14 8 0 26 6 40 14 32 18 15 18 -25
0z"/>
<path d="M5452 5015 c0 -16 2 -22 5 -12 2 9 2 23 0 30 -3 6 -5 -1 -5 -18z"/>
<path d="M2628 5023 c7 -3 16 -2 19 1 4 3 -2 6 -13 5 -11 0 -14 -3 -6 -6z"/>
<path d="M2497 5013 c18 -2 50 -2 70 0 21 2 7 4 -32 4 -38 0 -55 -2 -38 -4z"/>
<path d="M6776 4949 c-10 -33 -16 -63 -13 -65 2 -2 11 24 21 57 9 34 15 63 13
66 -2 2 -12 -24 -21 -58z"/>
<path d="M5462 4950 c0 -19 2 -27 5 -17 2 9 2 25 0 35 -3 9 -5 1 -5 -18z"/>
<path d="M5472 4890 c0 -14 2 -19 5 -12 2 6 2 18 0 25 -3 6 -5 1 -5 -13z"/>
<path d="M1425 4861 c-11 -25 -26 -42 -39 -44 -20 -4 -20 -4 1 -6 17 -1 28 9
43 38 12 25 28 41 42 44 21 4 21 4 -3 6 -21 1 -29 -6 -44 -38z"/>
<path d="M1518 4883 c30 -6 36 -23 24 -67 -9 -31 -8 -37 14 -51 13 -8 34 -33
46 -55 22 -39 25 -41 68 -38 l45 3 3 -55 3 -56 -39 -17 c-32 -14 -41 -24 -46
-51 -4 -18 -17 -55 -31 -82 l-24 -48 20 -35 20 -34 -45 -46 -45 -45 -29 27
-28 27 -40 -19 c-21 -10 -58 -22 -82 -26 -37 -6 -45 -12 -62 -46 -22 -42 -27
-44 -83 -28 -36 10 -38 11 -32 47 l5 37 -11 -35 c-10 -33 -9 -37 25 -66 33
-28 121 -59 138 -47 5 2 17 22 28 44 16 29 26 39 45 39 14 0 48 9 76 20 52 19
52 19 77 0 35 -28 42 -26 90 23 l43 44 -17 35 c-16 34 -16 37 10 101 14 36 26
72 26 80 0 8 18 22 39 32 47 21 49 25 43 88 -4 43 -9 52 -45 78 -27 20 -49 28
-63 25 -14 -4 -29 3 -48 23 -25 26 -27 33 -21 74 7 45 6 46 -35 76 -24 17 -52
30 -64 30 -19 -2 -19 -2 2 -6z"/>
<path d="M5482 4825 c0 -16 2 -22 5 -12 2 9 2 23 0 30 -3 6 -5 -1 -5 -18z"/>
<path d="M6736 4814 c-4 -14 -5 -28 -3 -31 3 -2 8 8 11 23 4 14 5 28 3 31 -3
2 -8 -8 -11 -23z"/>
<path d="M1140 4773 l-45 -48 47 44 47 44 31 -26 c30 -26 32 -26 63 -10 18 9
43 20 57 24 l25 9 -25 -4 c-14 -2 -39 -10 -57 -17 -29 -12 -35 -11 -62 9 -17
12 -32 22 -34 22 -1 0 -23 -21 -47 -47z"/>
<path d="M3063 4793 c9 -2 25 -2 35 0 9 3 1 5 -18 5 -19 0 -27 -2 -17 -5z"/>
<path d="M3133 4783 c9 -2 23 -2 30 0 6 3 -1 5 -18 5 -16 0 -22 -2 -12 -5z"/>
<path d="M5492 4765 c0 -16 2 -22 5 -12 2 9 2 23 0 30 -3 6 -5 -1 -5 -18z"/>
<path d="M3203 4773 c9 -2 23 -2 30 0 6 3 -1 5 -18 5 -16 0 -22 -2 -12 -5z"/>
<path d="M3263 4763 c9 -2 25 -2 35 0 9 3 1 5 -18 5 -19 0 -27 -2 -17 -5z"/>
<path d="M6716 4744 c-4 -14 -5 -28 -3 -31 3 -2 8 8 11 23 4 14 5 28 3 31 -3
2 -8 -8 -11 -23z"/>
<path d="M3333 4753 c9 -2 23 -2 30 0 6 3 -1 5 -18 5 -16 0 -22 -2 -12 -5z"/>
<path d="M3393 4743 c9 -2 25 -2 35 0 9 3 1 5 -18 5 -19 0 -27 -2 -17 -5z"/>
<path d="M2252 4719 c-23 -12 -58 -40 -77 -62 -32 -37 -76 -131 -74 -160 0 -7
10 15 23 49 37 101 81 149 163 179 21 7 31 14 23 14 -8 1 -34 -9 -58 -20z"/>
<path d="M3463 4733 c9 -2 23 -2 30 0 6 3 -1 5 -18 5 -16 0 -22 -2 -12 -5z"/>
<path d="M5502 4705 c0 -16 2 -22 5 -12 2 9 2 23 0 30 -3 6 -5 -1 -5 -18z"/>
<path d="M1100 4717 c0 -4 7 -19 17 -33 15 -24 15 -27 -5 -62 -11 -20 -25 -56
-31 -79 -10 -35 -19 -47 -51 -63 -36 -19 -40 -24 -40 -60 0 -21 3 -41 8 -43 4
-3 5 14 4 37 -4 41 -2 43 36 60 35 16 42 25 52 65 6 25 21 63 32 83 l21 37
-21 33 c-12 18 -22 29 -22 25z"/>
<path d="M2695 4689 c22 -4 51 -8 65 -7 16 0 11 3 -15 9 -22 4 -51 8 -65 7
-16 0 -11 -3 15 -9z"/>
<path d="M6686 4639 c-9 -34 -15 -63 -13 -66 2 -2 12 24 21 58 10 33 16 63 13
65 -2 2 -11 -24 -21 -57z"/>
<path d="M1986 4675 c-3 -9 -6 -22 -5 -28 0 -7 5 -1 10 12 5 13 8 26 5 28 -2
2 -6 -3 -10 -12z"/>
<path d="M2803 4673 c9 -2 25 -2 35 0 9 3 1 5 -18 5 -19 0 -27 -2 -17 -5z"/>
<path d="M2873 4663 c9 -2 23 -2 30 0 6 3 -1 5 -18 5 -16 0 -22 -2 -12 -5z"/>
<path d="M5512 4650 c-1 -14 5 -54 12 -90 8 -36 14 -56 14 -45 1 11 -5 52 -12
90 -8 39 -14 59 -14 45z"/>
<path d="M1349 4650 c-62 -18 -108 -74 -124 -147 -8 -40 16 -95 52 -119 35
-22 111 -15 149 15 33 26 64 70 64 91 0 8 -7 2 -16 -15 -33 -64 -86 -99 -140
-93 -27 3 -29 6 -32 53 -2 40 2 58 20 85 46 69 134 103 157 63 6 -10 11 -13
11 -8 0 21 -34 57 -66 71 -37 16 -38 16 -75 4z"/>
<path d="M2933 4653 c9 -2 25 -2 35 0 9 3 1 5 -18 5 -19 0 -27 -2 -17 -5z"/>
<path d="M3003 4643 c9 -2 23 -2 30 0 6 3 -1 5 -18 5 -16 0 -22 -2 -12 -5z"/>
<path d="M3073 4633 c9 -2 23 -2 30 0 6 3 -1 5 -18 5 -16 0 -22 -2 -12 -5z"/>
<path d="M1966 4604 c-4 -14 -5 -28 -3 -31 3 -2 8 8 11 23 4 14 5 28 3 31 -3
2 -8 -8 -11 -23z"/>
<path d="M3133 4623 c9 -2 25 -2 35 0 9 3 1 5 -18 5 -19 0 -27 -2 -17 -5z"/>
<path d="M3203 4613 c9 -2 23 -2 30 0 6 3 -1 5 -18 5 -16 0 -22 -2 -12 -5z"/>
<path d="M3263 4603 c9 -2 25 -2 35 0 9 3 1 5 -18 5 -19 0 -27 -2 -17 -5z"/>
<path d="M3333 4593 c9 -2 23 -2 30 0 6 3 -1 5 -18 5 -16 0 -22 -2 -12 -5z"/>
<path d="M1492 4535 c0 -16 2 -22 5 -12 2 9 2 23 0 30 -3 6 -5 -1 -5 -18z"/>
<path d="M1921 4449 c-18 -61 -30 -113 -28 -115 2 -2 18 46 36 107 18 61 30
113 28 115 -2 2 -18 -46 -36 -107z"/>
<path d="M6656 4534 c-4 -14 -5 -28 -3 -31 3 -2 8 8 11 23 4 14 5 28 3 31 -3
2 -8 -8 -11 -23z"/>
<path d="M6636 4464 c-4 -14 -5 -28 -3 -31 3 -2 8 8 11 23 4 14 5 28 3 31 -3
2 -8 -8 -11 -23z"/>
<path d="M2076 4419 c-9 -34 -15 -63 -13 -66 2 -2 12 24 21 58 10 33 16 63 13
65 -2 2 -11 -24 -21 -57z"/>
<path d="M5542 4460 c0 -14 2 -19 5 -12 2 6 2 18 0 25 -3 6 -5 1 -5 -13z"/>
<path d="M5551 4406 c1 -42 37 -220 38 -189 1 21 7 33 19 36 13 4 13 5 -4 6
-17 1 -23 9 -28 44 -4 23 -9 57 -13 76 l-6 33 64 -5 c70 -6 64 -3 -18 11 -50
9 -53 8 -52 -12z"/>
<path d="M6616 4394 c-4 -14 -5 -28 -3 -31 3 -2 8 8 11 23 4 14 5 28 3 31 -3
2 -8 -8 -11 -23z"/>
<path d="M2448 4373 c7 -3 16 -2 19 1 4 3 -2 6 -13 5 -11 0 -14 -3 -6 -6z"/>
<path d="M2493 4373 c9 -2 23 -2 30 0 6 3 -1 5 -18 5 -16 0 -22 -2 -12 -5z"/>
<path d="M2568 4363 c7 -3 16 -2 19 1 4 3 -2 6 -13 5 -11 0 -14 -3 -6 -6z"/>
<path d="M1000 4354 c0 -20 67 -64 98 -64 17 0 32 -3 34 -7 2 -5 17 -19 33
-33 20 -17 17 -10 -11 20 -23 25 -47 55 -53 66 -9 19 -15 21 -48 14 -26 -6
-40 -5 -45 3 -5 8 -8 9 -8 1z"/>
<path d="M2384 4338 l-19 -23 23 19 c21 18 27 26 19 26 -2 0 -12 -10 -23 -22z"/>
<path d="M2628 4353 c6 -2 18 -2 25 0 6 3 1 5 -13 5 -14 0 -19 -2 -12 -5z"/>
<path d="M4363 4353 c9 -2 23 -2 30 0 6 3 -1 5 -18 5 -16 0 -22 -2 -12 -5z"/>
<path d="M2688 4343 c6 -2 18 -2 25 0 6 3 1 5 -13 5 -14 0 -19 -2 -12 -5z"/>
<path d="M4450 4339 c60 -10 108 -9 55 2 -22 4 -53 8 -70 7 -22 0 -19 -3 15
-9z"/>
<path d="M6572 4238 c-35 -124 -36 -159 -3 -49 l21 70 33 -6 c125 -23 197
-109 197 -236 0 -48 -15 -115 -64 -283 -136 -467 -329 -1132 -348 -1199 -11
-38 -21 -71 -23 -73 -5 -5 -130 59 -133 69 -2 5 -7 7 -12 4 -5 -3 -100 37
-212 89 -111 51 -213 97 -225 100 -24 8 -114 -26 -134 -50 -6 -8 -20 -63 -30
-124 l-19 -111 71 -267 c45 -168 79 -275 91 -288 28 -31 65 -35 125 -12 85 32
93 41 114 153 10 55 18 115 19 133 l0 32 113 -56 c61 -31 113 -58 115 -59 2
-2 -12 -58 -30 -125 l-33 -122 -101 -94 -102 -94 -16 -92 c-9 -51 -19 -105
-22 -120 -4 -22 3 -36 40 -76 l46 -49 -76 -259 c-41 -142 -86 -277 -99 -300
-29 -50 -90 -106 -147 -135 -78 -40 -133 -37 -638 40 -455 70 -966 147 -1425
217 -126 19 -302 46 -390 59 -328 50 -1097 167 -1285 195 -107 16 -211 32
-230 35 -19 3 -148 23 -287 44 -233 36 -254 41 -296 70 -30 20 -54 48 -71 83
-14 28 -26 46 -26 38 0 -29 53 -101 111 -150 102 -84 70 -76 534 -145 165 -25
491 -74 725 -110 234 -36 634 -96 890 -135 689 -104 792 -120 1550 -236 782
-120 833 -125 921 -81 68 33 132 100 164 170 13 29 58 172 101 319 l77 268
186 168 c102 93 265 239 361 326 96 87 178 163 181 170 3 6 14 61 24 123 l18
112 -42 49 c-45 55 -88 78 -126 68 -14 -4 -67 -44 -117 -89 -248 -224 -283
-255 -285 -253 -1 1 5 29 14 63 15 56 21 63 56 79 21 10 42 25 47 33 4 9 16
66 26 128 16 104 17 114 1 130 -18 20 -34 -41 288 1066 58 203 105 371 103
373 -3 2 -35 -101 -73 -229 -78 -264 -103 -341 -104 -312 -1 17 -3 18 -12 5
-9 -12 -10 -12 -5 3 3 11 -1 25 -10 35 -15 15 -16 14 -10 -8 6 -23 5 -23 -5
-4 -9 17 6 78 76 324 89 314 101 386 75 454 -6 16 -9 31 -6 33 8 8 65 -72 72
-101 4 -17 9 -26 11 -19 19 56 -184 242 -264 243 -35 0 -44 14 -32 49 6 17 9
34 7 37 -3 2 -19 -46 -36 -108z m136 -993 c-3 -3 -9 2 -12 12 -6 14 -5 15 5 6
7 -7 10 -15 7 -18z m-558 -690 c183 -85 337 -160 342 -167 4 -7 7 -20 5 -28
-3 -21 -102 -72 -140 -73 -20 0 -101 32 -216 86 -102 48 -186 85 -188 83 -2
-2 14 -71 36 -153 23 -82 41 -154 41 -161 0 -7 -30 -27 -67 -43 -84 -39 -126
-34 -148 14 -18 40 -145 511 -145 538 0 24 68 58 115 59 19 0 161 -60 365
-155z m713 -314 c26 -27 47 -56 47 -64 0 -8 -39 -50 -87 -94 -49 -43 -185
-167 -303 -274 -335 -304 -341 -309 -366 -309 -35 0 -65 18 -108 67 -30 33
-37 47 -30 61 5 10 86 88 179 172 94 85 240 218 325 295 236 214 228 208 264
201 19 -4 49 -25 79 -55z"/>
<path d="M2046 4314 c-4 -14 -5 -28 -3 -31 3 -2 8 8 11 23 4 14 5 28 3 31 -3
2 -8 -8 -11 -23z"/>
<path d="M2763 4333 c9 -2 23 -2 30 0 6 3 -1 5 -18 5 -16 0 -22 -2 -12 -5z"/>
<path d="M2828 4323 c6 -2 18 -2 25 0 6 3 1 5 -13 5 -14 0 -19 -2 -12 -5z"/>
<path d="M4585 4319 c22 -4 51 -8 65 -7 16 0 11 3 -15 9 -22 4 -51 8 -65 7
-16 0 -11 -3 15 -9z"/>
<path d="M1876 4294 c-4 -14 -5 -28 -3 -31 3 -2 8 8 11 23 4 14 5 28 3 31 -3
2 -8 -8 -11 -23z"/>
<path d="M2893 4313 c9 -2 23 -2 30 0 6 3 -1 5 -18 5 -16 0 -22 -2 -12 -5z"/>
<path d="M2958 4303 c6 -2 18 -2 25 0 6 3 1 5 -13 5 -14 0 -19 -2 -12 -5z"/>
<path d="M4693 4303 c9 -2 25 -2 35 0 9 3 1 5 -18 5 -19 0 -27 -2 -17 -5z"/>
<path d="M3028 4293 c6 -2 18 -2 25 0 6 3 1 5 -13 5 -14 0 -19 -2 -12 -5z"/>
<path d="M4763 4293 c9 -2 25 -2 35 0 9 3 1 5 -18 5 -19 0 -27 -2 -17 -5z"/>
<path d="M3088 4283 c6 -2 18 -2 25 0 6 3 1 5 -13 5 -14 0 -19 -2 -12 -5z"/>
<path d="M3158 4273 c7 -3 16 -2 19 1 4 3 -2 6 -13 5 -11 0 -14 -3 -6 -6z"/>
<path d="M2016 4209 c-10 -33 -16 -63 -13 -65 2 -2 11 24 21 57 9 34 15 63 13
66 -2 2 -12 -24 -21 -58z"/>
<path d="M3228 4263 c7 -3 16 -2 19 1 4 3 -2 6 -13 5 -11 0 -14 -3 -6 -6z"/>
<path d="M1841 4174 c-12 -42 -20 -78 -18 -80 2 -2 14 30 26 72 12 42 20 78
18 80 -2 2 -14 -30 -26 -72z"/>
<path d="M5643 4243 c9 -2 23 -2 30 0 6 3 -1 5 -18 5 -16 0 -22 -2 -12 -5z"/>
<path d="M2331 4214 c0 -11 3 -14 6 -6 3 7 2 16 -1 19 -3 4 -6 -2 -5 -13z"/>
<path d="M3362 4160 c0 -14 2 -19 5 -12 2 6 2 18 0 25 -3 6 -5 1 -5 -13z"/>
<path d="M5592 4155 c0 -16 2 -22 5 -12 2 9 2 23 0 30 -3 6 -5 -1 -5 -18z"/>
<path d="M3075 4158 c-16 -48 -145 -498 -145 -506 0 -12 26 -19 106 -28 l61
-6 12 43 c6 24 40 142 75 261 71 242 72 222 -19 233 -27 4 -58 9 -68 12 -9 2
-19 -2 -22 -9z"/>
<path d="M2311 4144 c0 -11 3 -14 6 -6 3 7 2 16 -1 19 -3 4 -6 -2 -5 -13z"/>
<path d="M1977 4078 c-59 -204 -68 -240 -65 -244 3 -2 23 62 46 143 23 81 40
149 38 151 -2 2 -11 -20 -19 -50z"/>
<path d="M3351 4114 c0 -11 3 -14 6 -6 3 7 2 16 -1 19 -3 4 -6 -2 -5 -13z"/>
<path d="M3573 4113 c9 -2 25 -2 35 0 9 3 1 5 -18 5 -19 0 -27 -2 -17 -5z"/>
<path d="M5602 4090 c0 -19 2 -27 5 -17 2 9 2 25 0 35 -3 9 -5 1 -5 -18z"/>
<path d="M3643 4103 c9 -2 23 -2 30 0 6 3 -1 5 -18 5 -16 0 -22 -2 -12 -5z"/>
<path d="M6511 4029 c-12 -45 -20 -83 -18 -85 3 -3 8 8 11 23 4 15 14 52 22
81 l16 52 30 -21 c17 -12 39 -40 49 -63 10 -23 19 -35 19 -28 0 33 -72 122
-99 122 -4 0 -18 -36 -30 -81z"/>
<path d="M3713 4093 c9 -2 23 -2 30 0 6 3 -1 5 -18 5 -16 0 -22 -2 -12 -5z"/>
<path d="M2626 4081 c-6 -10 -106 -359 -106 -369 0 -9 158 -38 165 -30 3 3
113 378 111 379 -10 5 -168 24 -170 20z"/>
<path d="M3773 4083 c9 -2 25 -2 35 0 9 3 1 5 -18 5 -19 0 -27 -2 -17 -5z"/>
<path d="M1806 4054 c-4 -14 -5 -28 -3 -31 3 -2 8 8 11 23 4 14 5 28 3 31 -3
2 -8 -8 -11 -23z"/>
<path d="M3853 4073 c9 -2 23 -2 30 0 6 3 -1 5 -18 5 -16 0 -22 -2 -12 -5z"/>
<path d="M3913 4063 c9 -2 25 -2 35 0 9 3 1 5 -18 5 -19 0 -27 -2 -17 -5z"/>
<path d="M5612 4025 c0 -16 2 -22 5 -12 2 9 2 23 0 30 -3 6 -5 -1 -5 -18z"/>
<path d="M1781 3969 c-7 -22 -11 -43 -8 -45 2 -2 9 14 16 37 7 22 11 43 8 45
-2 2 -9 -14 -16 -37z"/>
<path d="M2771 3848 c-24 -84 -46 -158 -48 -164 -5 -14 155 -41 166 -28 8 10
91 292 91 311 0 6 -28 16 -63 22 -109 19 -97 30 -146 -141z"/>
<path d="M6902 3950 c-1 -30 -5 -66 -7 -80 l-6 -25 11 25 c6 13 9 49 7 80 l-3
55 -2 -55z"/>
<path d="M5622 3965 c0 -16 2 -22 5 -12 2 9 2 23 0 30 -3 6 -5 -1 -5 -18z"/>
<path d="M6638 3920 c-4 -30 -10 -66 -13 -80 -2 -14 2 -5 10 20 9 25 14 61 13
80 -3 29 -4 26 -10 -20z"/>
<path d="M2342 3848 c-16 -57 -27 -106 -23 -110 10 -10 154 -29 161 -21 9 10
63 204 58 208 -3 3 -140 25 -156 25 -5 0 -23 -46 -40 -102z"/>
<path d="M5632 3905 c0 -16 2 -22 5 -12 2 9 2 23 0 30 -3 6 -5 -1 -5 -18z"/>
<path d="M6471 3889 c-7 -22 -11 -43 -8 -45 2 -2 9 14 16 37 7 22 11 43 8 45
-2 2 -9 -14 -16 -37z"/>
<path d="M1756 3884 c-4 -14 -5 -28 -3 -31 3 -2 8 8 11 23 4 14 5 28 3 31 -3
2 -8 -8 -11 -23z"/>
<path d="M5193 3873 c9 -2 25 -2 35 0 9 3 1 5 -18 5 -19 0 -27 -2 -17 -5z"/>
<path d="M5263 3863 c9 -2 25 -2 35 0 9 3 1 5 -18 5 -19 0 -27 -2 -17 -5z"/>
<path d="M3338 3853 c7 -3 16 -2 19 1 4 3 -2 6 -13 5 -11 0 -14 -3 -6 -6z"/>
<path d="M5333 3853 c9 -2 25 -2 35 0 9 3 1 5 -18 5 -19 0 -27 -2 -17 -5z"/>
<path d="M3398 3843 c6 -2 18 -2 25 0 6 3 1 5 -13 5 -14 0 -19 -2 -12 -5z"/>
<path d="M5403 3843 c9 -2 23 -2 30 0 6 3 -1 5 -18 5 -16 0 -22 -2 -12 -5z"/>
<path d="M1716 3744 c-15 -53 -25 -98 -23 -101 2 -2 16 40 31 93 15 52 26 97
24 100 -3 2 -17 -40 -32 -92z"/>
<path d="M3468 3833 c6 -2 18 -2 25 0 6 3 1 5 -13 5 -14 0 -19 -2 -12 -5z"/>
<path d="M5495 3829 c22 -4 51 -8 65 -7 16 0 11 3 -15 9 -22 4 -51 8 -65 7
-16 0 -11 -3 15 -9z"/>
<path d="M3538 3823 c6 -2 18 -2 25 0 6 3 1 5 -13 5 -14 0 -19 -2 -12 -5z"/>
<path d="M6446 3804 c-4 -14 -5 -28 -3 -31 3 -2 8 8 11 23 4 14 5 28 3 31 -3
2 -8 -8 -11 -23z"/>
<path d="M1891 3779 c-7 -22 -11 -43 -8 -45 2 -2 9 14 16 37 7 22 11 43 8 45
-2 2 -9 -14 -16 -37z"/>
<path d="M3261 3804 c0 -11 3 -14 6 -6 3 7 2 16 -1 19 -3 4 -6 -2 -5 -13z"/>
<path d="M3590 3816 c0 -2 11 -6 25 -8 13 -3 22 -1 19 3 -5 9 -44 13 -44 5z"/>
<path d="M6601 3769 c-7 -22 -11 -43 -8 -45 2 -2 9 14 16 37 7 22 11 43 8 45
-2 2 -9 -14 -16 -37z"/>
<path d="M5318 3783 c7 -3 16 -2 19 1 4 3 -2 6 -13 5 -11 0 -14 -3 -6 -6z"/>
<path d="M5275 3770 c-3 -6 1 -7 9 -4 18 7 21 14 7 14 -6 0 -13 -4 -16 -10z"/>
<path d="M5373 3773 c9 -2 23 -2 30 0 6 3 -1 5 -18 5 -16 0 -22 -2 -12 -5z"/>
<path d="M5448 3763 c6 -2 18 -2 25 0 6 3 1 5 -13 5 -14 0 -19 -2 -12 -5z"/>
<path d="M5238 3743 c-18 -21 -31 -43 -25 -43 2 0 13 14 25 30 25 33 24 41 0
13z"/>
<path d="M5508 3753 c6 -2 18 -2 25 0 6 3 1 5 -13 5 -14 0 -19 -2 -12 -5z"/>
<path d="M5993 3753 c9 -2 25 -2 35 0 9 3 1 5 -18 5 -19 0 -27 -2 -17 -5z"/>
<path d="M6423 3730 c-9 -24 -17 -30 -30 -26 -10 2 -45 7 -78 10 l-60 5 70
-14 c39 -7 76 -14 83 -14 13 -1 35 45 30 61 -2 5 -9 -5 -15 -22z"/>
<path d="M5578 3743 c6 -2 18 -2 25 0 6 3 1 5 -13 5 -14 0 -19 -2 -12 -5z"/>
<path d="M6063 3743 c9 -2 25 -2 35 0 9 3 1 5 -18 5 -19 0 -27 -2 -17 -5z"/>
<path d="M2192 3715 c0 -16 2 -22 5 -12 2 9 2 23 0 30 -3 6 -5 -1 -5 -18z"/>
<path d="M5643 3733 c9 -2 23 -2 30 0 6 3 -1 5 -18 5 -16 0 -22 -2 -12 -5z"/>
<path d="M6133 3733 c9 -2 25 -2 35 0 9 3 1 5 -18 5 -19 0 -27 -2 -17 -5z"/>
<path d="M5708 3723 c6 -2 18 -2 25 0 6 3 1 5 -13 5 -14 0 -19 -2 -12 -5z"/>
<path d="M6203 3723 c9 -2 23 -2 30 0 6 3 -1 5 -18 5 -16 0 -22 -2 -12 -5z"/>
<path d="M1871 3704 c0 -11 3 -14 6 -6 3 7 2 16 -1 19 -3 4 -6 -2 -5 -13z"/>
<path d="M3601 3704 c0 -11 3 -14 6 -6 3 7 2 16 -1 19 -3 4 -6 -2 -5 -13z"/>
<path d="M5778 3713 c6 -2 18 -2 25 0 6 3 1 5 -13 5 -14 0 -19 -2 -12 -5z"/>
<path d="M5838 3703 c6 -2 18 -2 25 0 6 3 1 5 -13 5 -14 0 -19 -2 -12 -5z"/>
<path d="M6576 3684 c-4 -14 -5 -28 -3 -31 3 -2 8 8 11 23 4 14 5 28 3 31 -3
2 -8 -8 -11 -23z"/>
<path d="M5898 3693 c6 -2 18 -2 25 0 6 3 1 5 -13 5 -14 0 -19 -2 -12 -5z"/>
<path d="M5968 3683 c6 -2 18 -2 25 0 6 3 1 5 -13 5 -14 0 -19 -2 -12 -5z"/>
<path d="M2200 3671 c0 -9 49 -56 53 -50 1 2 -10 16 -25 31 -15 15 -28 23 -28
19z"/>
<path d="M6038 3673 c6 -2 18 -2 25 0 6 3 1 5 -13 5 -14 0 -19 -2 -12 -5z"/>
<path d="M5390 3653 c0 -15 2 -15 9 -4 8 12 23 12 101 2 50 -7 93 -11 96 -9 5
5 -147 28 -183 28 -15 0 -23 -6 -23 -17z"/>
<path d="M6111 3643 c7 -12 15 -20 18 -17 3 2 -3 12 -13 22 -17 16 -18 16 -5
-5z"/>
<path d="M1836 3589 c-10 -33 -16 -63 -13 -65 2 -2 11 24 21 57 9 34 15 63 13
66 -2 2 -12 -24 -21 -58z"/>
<path d="M3211 3634 c0 -11 3 -14 6 -6 3 7 2 16 -1 19 -3 4 -6 -2 -5 -13z"/>
<path d="M5623 3633 c9 -2 23 -2 30 0 6 3 -1 5 -18 5 -16 0 -22 -2 -12 -5z"/>
<path d="M6556 3614 c-4 -14 -5 -28 -3 -31 3 -2 8 8 11 23 4 14 5 28 3 31 -3
2 -8 -8 -11 -23z"/>
<path d="M5376 3604 c-4 -14 -5 -28 -3 -31 3 -2 8 8 11 23 4 14 5 28 3 31 -3
2 -8 -8 -11 -23z"/>
<path d="M5693 3623 c9 -2 23 -2 30 0 6 3 -1 5 -18 5 -16 0 -22 -2 -12 -5z"/>
<path d="M2288 3613 c6 -2 18 -2 25 0 6 3 1 5 -13 5 -14 0 -19 -2 -12 -5z"/>
<path d="M5181 3604 c0 -11 3 -14 6 -6 3 7 2 16 -1 19 -3 4 -6 -2 -5 -13z"/>
<path d="M5753 3613 c9 -2 25 -2 35 0 9 3 1 5 -18 5 -19 0 -27 -2 -17 -5z"/>
<path d="M2363 3603 c9 -2 23 -2 30 0 6 3 -1 5 -18 5 -16 0 -22 -2 -12 -5z"/>
<path d="M5823 3603 c9 -2 23 -2 30 0 6 3 -1 5 -18 5 -16 0 -22 -2 -12 -5z"/>
<path d="M6131 3585 c0 -16 -4 -41 -6 -55 l-6 -25 11 25 c6 13 9 38 7 55 l-4
30 -2 -30z"/>
<path d="M1656 3539 c-9 -34 -15 -63 -13 -66 2 -2 12 24 21 58 10 33 16 63 13
65 -2 2 -11 -24 -21 -57z"/>
<path d="M2428 3593 c6 -2 18 -2 25 0 6 3 1 5 -13 5 -14 0 -19 -2 -12 -5z"/>
<path d="M5883 3593 c9 -2 25 -2 35 0 9 3 1 5 -18 5 -19 0 -27 -2 -17 -5z"/>
<path d="M2488 3583 c6 -2 18 -2 25 0 6 3 1 5 -13 5 -14 0 -19 -2 -12 -5z"/>
<path d="M2558 3573 c6 -2 18 -2 25 0 6 3 1 5 -13 5 -14 0 -19 -2 -12 -5z"/>
<path d="M2628 3563 c6 -2 18 -2 25 0 6 3 1 5 -13 5 -14 0 -19 -2 -12 -5z"/>
<path d="M5931 3527 c-12 -41 -17 -46 -45 -50 -30 -4 -30 -4 3 -3 30 1 36 5
48 40 7 22 12 44 10 50 -2 5 -9 -11 -16 -37z"/>
<path d="M6536 3544 c-4 -14 -5 -28 -3 -31 3 -2 8 8 11 23 4 14 5 28 3 31 -3
2 -8 -8 -11 -23z"/>
<path d="M2688 3553 c6 -2 18 -2 25 0 6 3 1 5 -13 5 -14 0 -19 -2 -12 -5z"/>
<path d="M3174 3549 c-3 -6 -20 -19 -38 -30 -17 -10 -25 -19 -19 -19 13 0 83
59 71 60 -4 0 -10 -5 -14 -11z"/>
<path d="M2748 3543 c6 -2 18 -2 25 0 6 3 1 5 -13 5 -14 0 -19 -2 -12 -5z"/>
<path d="M5418 3543 c17 -2 32 -7 32 -11 0 -4 31 -8 68 -8 l67 -1 -75 13 c-41
7 -86 12 -100 12 -18 -1 -15 -2 8 -5z"/>
<path d="M2828 3533 c7 -3 16 -2 19 1 4 3 -2 6 -13 5 -11 0 -14 -3 -6 -6z"/>
<path d="M2888 3523 c6 -2 18 -2 25 0 6 3 1 5 -13 5 -14 0 -19 -2 -12 -5z"/>
<path d="M3863 3523 c37 -2 97 -2 135 0 37 2 6 3 -68 3 -74 0 -105 -1 -67 -3z"/>
<path d="M2958 3513 c6 -2 18 -2 25 0 6 3 1 5 -13 5 -14 0 -19 -2 -12 -5z"/>
<path d="M3695 3510 c-30 -8 -30 -8 -4 -9 l27 -1 -16 -61 c-12 -44 -24 -66
-44 -81 -31 -21 -36 -49 -13 -68 35 -29 88 24 62 63 -13 20 -12 30 6 89 18 62
22 67 51 71 30 4 30 4 -4 4 -19 0 -48 -3 -65 -7z"/>
<path d="M4088 3513 c12 -2 32 -2 45 0 12 2 2 4 -23 4 -25 0 -35 -2 -22 -4z"/>
<path d="M5603 3513 c9 -2 23 -2 30 0 6 3 -1 5 -18 5 -16 0 -22 -2 -12 -5z"/>
<path d="M3018 3503 c6 -2 18 -2 25 0 6 3 1 5 -13 5 -14 0 -19 -2 -12 -5z"/>
<path d="M4185 3500 c17 -4 39 -8 50 -8 16 0 15 2 -5 8 -14 4 -36 8 -50 8 -22
0 -22 -1 5 -8z"/>
<path d="M5281 3479 c-6 -18 -11 -37 -10 -43 0 -6 7 7 15 28 8 22 12 41 10 43
-2 2 -9 -10 -15 -28z"/>
<path d="M5440 3501 c0 -6 -15 -12 -32 -14 -32 -4 -32 -4 5 -5 27 -2 37 2 37
13 0 8 -2 15 -5 15 -3 0 -5 -4 -5 -9z"/>
<path d="M5663 3503 c9 -2 25 -2 35 0 9 3 1 5 -18 5 -19 0 -27 -2 -17 -5z"/>
<path d="M3578 3486 c-25 -6 -50 -15 -55 -19 -8 -9 12 -5 97 19 56 15 22 16
-42 0z"/>
<path d="M5333 3493 c9 -2 23 -2 30 0 6 3 -1 5 -18 5 -16 0 -22 -2 -12 -5z"/>
<path d="M5733 3493 c9 -2 25 -2 35 0 9 3 1 5 -18 5 -19 0 -27 -2 -17 -5z"/>
<path d="M6511 3459 c-7 -22 -11 -43 -8 -45 2 -2 9 14 16 37 7 22 11 43 8 45
-2 2 -9 -14 -16 -37z"/>
<path d="M4305 3474 c28 -7 55 -13 60 -13 17 2 -69 27 -90 27 -11 0 3 -6 30
-14z"/>
<path d="M4715 3479 c-11 -16 -1 -19 13 -3 7 8 8 14 3 14 -5 0 -13 -5 -16 -11z"/>
<path d="M5800 3483 c8 -3 18 -10 21 -15 3 -5 9 -3 12 6 5 12 0 16 -21 15 -16
0 -21 -3 -12 -6z"/>
<path d="M1796 3454 c-4 -14 -5 -28 -3 -31 3 -2 8 8 11 23 4 14 5 28 3 31 -3
2 -8 -8 -11 -23z"/>
<path d="M4768 3473 c6 -2 18 -2 25 0 6 3 1 5 -13 5 -14 0 -19 -2 -12 -5z"/>
<path d="M5485 3470 c17 -4 44 -8 60 -8 25 0 24 2 -10 9 -51 10 -92 10 -50 -1z"/>
<path d="M4838 3463 c6 -2 18 -2 25 0 6 3 1 5 -13 5 -14 0 -19 -2 -12 -5z"/>
<path d="M6101 3454 c0 -11 3 -14 6 -6 3 7 2 16 -1 19 -3 4 -6 -2 -5 -13z"/>
<path d="M1626 3434 c-4 -14 -5 -28 -3 -31 3 -2 8 8 11 23 4 14 5 28 3 31 -3
2 -8 -8 -11 -23z"/>
<path d="M3419 3426 c-138 -61 -280 -165 -367 -269 -45 -54 -87 -125 -79 -134
3 -2 8 4 11 15 6 18 10 18 91 4 93 -15 116 -12 114 15 -1 16 -2 16 -6 -1 -4
-15 -11 -17 -41 -12 -21 3 -61 9 -89 12 -29 4 -53 10 -53 14 0 16 78 106 141
164 94 88 167 132 349 213 14 7 21 12 15 12 -5 0 -44 -15 -86 -33z"/>
<path d="M4390 3452 c8 -5 26 -13 40 -16 17 -5 20 -4 10 2 -8 5 -26 13 -40 16
-17 5 -20 4 -10 -2z"/>
<path d="M4908 3453 c6 -2 18 -2 25 0 6 3 1 5 -13 5 -14 0 -19 -2 -12 -5z"/>
<path d="M5566 3397 c-10 -36 -24 -68 -32 -70 -9 -3 -8 -4 3 -3 12 1 23 19 35
61 10 32 17 63 15 69 -2 5 -11 -20 -21 -57z"/>
<path d="M4968 3443 c6 -2 18 -2 25 0 6 3 1 5 -13 5 -14 0 -19 -2 -12 -5z"/>
<path d="M5653 3435 c-3 -9 -3 -19 1 -22 3 -4 6 1 6 10 0 8 10 18 23 20 l22 4
-23 2 c-12 0 -25 -6 -29 -14z"/>
<path d="M5810 3441 c0 -5 -8 -12 -17 -14 -11 -3 -8 -5 9 -6 20 -1 26 3 22 14
-7 17 -14 20 -14 6z"/>
<path d="M5028 3433 c6 -2 18 -2 25 0 6 3 1 5 -13 5 -14 0 -19 -2 -12 -5z"/>
<path d="M5115 3429 c-11 -4 -14 -8 -7 -8 6 -1 12 -9 13 -18 0 -13 3 -11 10 6
11 29 10 31 -16 20z"/>
<path d="M5723 3433 c9 -2 25 -2 35 0 9 3 1 5 -18 5 -19 0 -27 -2 -17 -5z"/>
<path d="M4470 3420 c8 -5 20 -10 25 -10 6 0 3 5 -5 10 -8 5 -19 10 -25 10 -5
0 -3 -5 5 -10z"/>
<path d="M5261 3413 c-1 -6 -4 -20 -7 -30 -5 -17 -5 -17 6 0 6 10 9 23 6 30
-3 9 -5 9 -5 0z"/>
<path d="M5895 3408 c28 -6 53 -16 57 -22 5 -7 8 -4 8 7 0 10 -7 17 -17 17
-10 0 -36 2 -58 5 -33 4 -31 2 10 -7z"/>
<path d="M1762 3339 c-11 -39 -17 -67 -12 -63 10 11 43 125 37 130 -2 2 -13
-28 -25 -67z"/>
<path d="M5632 3361 c-15 -47 -15 -51 -1 -51 5 0 8 4 5 9 -3 5 -1 23 5 40 6
18 9 34 7 37 -3 2 -10 -13 -16 -35z"/>
<path d="M6486 3374 c-4 -14 -5 -28 -3 -31 3 -2 8 8 11 23 4 14 5 28 3 31 -3
2 -8 -8 -11 -23z"/>
<path d="M1606 3364 c-4 -14 -5 -28 -3 -31 3 -2 8 8 11 23 4 14 5 28 3 31 -3
2 -8 -8 -11 -23z"/>
<path d="M4570 3376 c0 -2 23 -18 51 -36 56 -34 140 -109 170 -151 18 -25 18
-30 3 -80 -9 -30 -19 -57 -22 -60 -4 -4 -43 -1 -87 7 -44 7 -91 13 -105 12
-23 0 56 -16 157 -32 l42 -6 19 61 19 61 22 -28 22 -29 -18 34 c-10 19 -50 69
-89 110 -39 42 -74 83 -77 91 -3 9 -6 10 -6 2 -1 -8 -13 -5 -38 11 -58 36 -63
39 -63 33z"/>
<path d="M5330 3354 c36 -7 76 -13 90 -12 14 0 -6 6 -45 14 -38 7 -79 13 -90
12 -11 0 9 -6 45 -14z"/>
<path d="M5936 3344 c-4 -14 -5 -28 -3 -31 3 -2 8 8 11 23 4 14 5 28 3 31 -3
2 -8 -8 -11 -23z"/>
<path d="M5473 3333 c9 -2 23 -2 30 0 6 3 -1 5 -18 5 -16 0 -22 -2 -12 -5z"/>
<path d="M6456 3269 c-10 -33 -16 -63 -13 -65 2 -2 11 24 21 57 9 34 15 63 13
66 -2 2 -12 -24 -21 -58z"/>
<path d="M5660 3293 c0 -12 3 -14 8 -7 4 7 16 14 27 17 15 4 14 5 -7 6 -21 1
-28 -4 -28 -16z"/>
<path d="M5815 3281 c55 -10 103 -16 108 -14 4 3 7 12 7 21 0 14 -2 14 -9 3
-8 -12 -22 -12 -93 -3 -121 17 -130 12 -13 -7z"/>
<path d="M5293 3265 c-3 -9 -3 -19 1 -22 3 -4 6 1 6 10 0 8 6 18 13 20 9 4 9
6 -1 6 -7 1 -15 -6 -19 -14z"/>
<path d="M5343 3263 c9 -2 25 -2 35 0 9 3 1 5 -18 5 -19 0 -27 -2 -17 -5z"/>
<path d="M5400 3256 c0 -2 13 -6 29 -8 17 -2 28 -1 25 4 -5 8 -54 12 -54 4z"/>
<path d="M5560 3219 c-6 -11 -9 -25 -6 -32 2 -7 5 -5 5 5 1 9 8 24 17 32 8 9
11 16 5 16 -6 0 -15 -9 -21 -21z"/>
<path d="M5271 3189 c-7 -22 -11 -43 -8 -45 2 -2 9 14 16 37 7 22 11 43 8 45
-2 2 -9 -14 -16 -37z"/>
<path d="M5431 3189 c-7 -22 -11 -43 -8 -45 2 -2 9 14 16 37 7 22 11 43 8 45
-2 2 -9 -14 -16 -37z"/>
<path d="M5613 3223 c9 -2 25 -2 35 0 9 3 1 5 -18 5 -19 0 -27 -2 -17 -5z"/>
<path d="M5687 3213 c12 -2 24 -12 26 -21 3 -12 5 -10 6 6 1 18 -4 22 -26 21
-23 -1 -24 -2 -6 -6z"/>
<path d="M5760 3174 c-7 -19 -9 -38 -6 -41 3 -4 6 0 6 8 0 8 7 26 14 42 8 15
11 27 6 27 -5 0 -14 -16 -20 -36z"/>
<path d="M5855 3188 c33 -6 61 -11 62 -12 1 -1 -4 -24 -12 -51 -8 -26 -15 -53
-14 -59 0 -6 9 16 20 49 10 33 15 63 11 66 -4 4 -34 10 -67 13 l-60 5 60 -11z"/>
<path d="M3766 3174 c-18 -17 -19 -24 -10 -48 8 -20 48 -21 64 -1 7 9 20 13
29 11 9 -2 38 -7 64 -11 l49 -7 -6 -32 c-6 -31 -4 -34 23 -39 18 -4 32 -14 36
-27 4 -14 15 -20 35 -20 36 0 56 30 40 60 -13 24 -32 25 -63 5 -12 -8 -32 -12
-44 -9 -18 5 -21 11 -16 39 l5 34 -61 7 c-50 5 -65 11 -78 30 -18 28 -45 31
-67 8z"/>
<path d="M5536 3144 c-4 -14 -5 -28 -3 -31 3 -2 8 8 11 23 4 14 5 28 3 31 -3
2 -8 -8 -11 -23z"/>
<path d="M5688 3118 c-13 -48 -18 -54 -49 -59 l-34 -6 37 -2 c36 -1 37 0 53
55 9 31 14 58 12 60 -2 3 -11 -19 -19 -48z"/>
<path d="M6416 3134 c-4 -14 -5 -28 -3 -31 3 -2 8 8 11 23 4 14 5 28 3 31 -3
2 -8 -8 -11 -23z"/>
<path d="M5250 3120 c0 -5 5 -10 11 -10 5 0 7 5 4 10 -3 6 -8 10 -11 10 -2 0
-4 -4 -4 -10z"/>
<path d="M5410 3117 c0 -9 -11 -17 -27 -20 l-28 -4 28 -2 c26 -1 48 22 33 36
-3 4 -6 -1 -6 -10z"/>
<path d="M3390 3102 c-21 -17 -29 -17 -94 -6 -96 17 -106 17 -106 -3 0 -12 3
-14 8 -6 6 9 26 9 85 1 63 -9 79 -15 92 -35 19 -29 49 -30 69 -1 20 28 20 33
0 52 -20 20 -27 20 -54 -2z"/>
<path d="M4472 3108 c-15 -15 -16 -50 -1 -65 22 -22 82 17 72 45 -12 32 -49
42 -71 20z"/>
<path d="M5736 3094 c-4 -14 -5 -28 -3 -31 3 -2 8 8 11 23 4 14 5 28 3 31 -3
2 -8 -8 -11 -23z"/>
<path d="M5051 3099 c-1 -8 6 -24 15 -35 15 -19 15 -19 6 1 -5 11 -12 27 -15
35 -5 13 -6 13 -6 -1z"/>
<path d="M5293 3103 c9 -2 25 -2 35 0 9 3 1 5 -18 5 -19 0 -27 -2 -17 -5z"/>
<path d="M5521 3084 c0 -11 3 -14 6 -6 3 7 2 16 -1 19 -3 4 -6 -2 -5 -13z"/>
<path d="M2121 3053 c20 -39 28 -82 9 -53 -14 22 -23 5 -10 -20 8 -15 8 -20 1
-16 -7 5 -11 -4 -11 -23 0 -17 -4 -31 -10 -31 -5 0 -7 7 -4 15 4 8 1 15 -7 15
-7 0 -9 -3 -6 -6 3 -4 1 -16 -5 -28 -7 -11 -13 -23 -14 -26 -4 -17 -20 -47
-30 -57 -7 -7 -15 -18 -18 -25 -5 -10 -7 -10 -12 -1 -3 7 -14 23 -24 35 -14
17 -13 11 5 -26 14 -27 25 -67 25 -88 0 -47 -29 -108 -68 -139 l-28 -24 19
-50 c19 -51 21 -167 3 -210 -5 -11 24 32 64 95 40 63 79 132 86 154 17 47 18
131 2 189 -10 40 -9 47 10 75 35 49 62 114 62 152 0 36 -30 113 -48 124 -5 3
-1 -11 9 -31z m27 -104 c-1 -17 -4 -25 -8 -18 -7 10 -2 49 5 49 2 0 3 -14 3
-31z"/>
<path d="M4866 3075 c19 -56 54 -136 49 -110 -4 17 -17 53 -31 80 -13 28 -21
41 -18 30z"/>
<path d="M5991 3074 c0 -11 3 -14 6 -6 3 7 2 16 -1 19 -3 4 -6 -2 -5 -13z"/>
<path d="M6381 3014 c-12 -42 -20 -78 -18 -80 2 -2 14 30 26 72 12 42 20 78
18 80 -2 2 -14 -30 -26 -72z"/>
<path d="M1783 3068 c-15 -20 -25 -38 -20 -38 3 0 12 11 21 25 17 26 16 35 -1
13z"/>
<path d="M5540 3068 c0 -4 14 -8 30 -8 17 0 30 2 30 4 0 2 -13 6 -30 8 -16 3
-30 1 -30 -4z"/>
<path d="M1260 3021 c-36 -15 -195 -90 -355 -166 -440 -209 -474 -225 -561
-265 -44 -21 -97 -52 -118 -70 -70 -62 -98 -154 -73 -245 21 -79 241 -451 299
-507 59 -57 128 -83 215 -81 67 1 25 -17 548 231 110 52 286 134 390 183 208
97 259 136 283 216 15 52 15 134 0 170 -12 29 -180 323 -231 406 -90 145 -244
195 -397 128z m180 -256 c32 -17 82 -66 99 -99 11 -21 12 -28 1 -41 -20 -24
-36 -18 -69 24 -34 43 -90 74 -116 65 -30 -12 -37 -52 -19 -110 19 -62 14 -87
-18 -82 -34 5 -63 70 -63 140 0 46 4 61 25 83 14 15 34 31 45 36 24 10 80 2
115 -16z m-807 -404 c41 -25 90 -93 85 -118 -6 -35 -41 -26 -80 20 -41 49 -81
69 -116 56 -18 -7 -22 -16 -22 -49 0 -22 7 -56 15 -76 17 -42 11 -64 -21 -64
-56 0 -91 159 -48 217 40 54 114 59 187 14z m677 -86 c10 -12 10 -24 1 -55
-16 -53 -49 -90 -113 -125 -47 -26 -63 -30 -135 -30 -72 0 -85 3 -105 23 -18
18 -21 26 -11 40 6 9 19 15 29 13 73 -14 134 -12 170 7 40 20 94 68 94 83 0 4
4 19 10 33 11 29 41 34 60 11z"/>
<path d="M5097 3039 c7 -7 15 -10 18 -7 3 3 -2 9 -12 12 -14 6 -15 5 -6 -5z"/>
<path d="M5876 3035 c-9 -26 -7 -32 5 -12 6 10 9 21 6 23 -2 3 -7 -2 -11 -11z"/>
<path d="M5763 3033 c9 -2 23 -2 30 0 6 3 -1 5 -18 5 -16 0 -22 -2 -12 -5z"/>
<path d="M5148 3023 c6 -2 18 -2 25 0 6 3 1 5 -13 5 -14 0 -19 -2 -12 -5z"/>
<path d="M5823 3023 c9 -2 23 -2 30 0 6 3 -1 5 -18 5 -16 0 -22 -2 -12 -5z"/>
<path d="M5213 3013 c9 -2 23 -2 30 0 6 3 -1 5 -18 5 -16 0 -22 -2 -12 -5z"/>
<path d="M1630 3006 c0 -2 8 -10 18 -17 15 -13 16 -12 3 4 -13 16 -21 21 -21
13z"/>
<path d="M2951 2973 c-6 -21 -11 -47 -10 -58 0 -11 7 5 14 35 15 63 12 81 -4
23z"/>
<path d="M5278 3003 c6 -2 18 -2 25 0 6 3 1 5 -13 5 -14 0 -19 -2 -12 -5z"/>
<path d="M5343 2993 c9 -2 23 -2 30 0 6 3 -1 5 -18 5 -16 0 -22 -2 -12 -5z"/>
<path d="M5413 2983 c9 -2 23 -2 30 0 6 3 -1 5 -18 5 -16 0 -22 -2 -12 -5z"/>
<path d="M5934 2958 l-29 -33 33 29 c17 17 32 31 32 33 0 8 -8 1 -36 -29z"/>
<path d="M5478 2973 c6 -2 18 -2 25 0 6 3 1 5 -13 5 -14 0 -19 -2 -12 -5z"/>
<path d="M5548 2963 c6 -2 18 -2 25 0 6 3 1 5 -13 5 -14 0 -19 -2 -12 -5z"/>
<path d="M5608 2953 c6 -2 18 -2 25 0 6 3 1 5 -13 5 -14 0 -19 -2 -12 -5z"/>
<path d="M5678 2943 c6 -2 18 -2 25 0 6 3 1 5 -13 5 -14 0 -19 -2 -12 -5z"/>
<path d="M5748 2933 c6 -2 18 -2 25 0 6 3 1 5 -13 5 -14 0 -19 -2 -12 -5z"/>
<path d="M4922 2910 c0 -14 2 -19 5 -12 2 6 2 18 0 25 -3 6 -5 1 -5 -13z"/>
<path d="M5808 2923 c6 -2 18 -2 25 0 6 3 1 5 -13 5 -14 0 -19 -2 -12 -5z"/>
<path d="M5878 2923 c7 -3 16 -2 19 1 4 3 -2 6 -13 5 -11 0 -14 -3 -6 -6z"/>
<path d="M4665 2887 c-8 -19 -21 -37 -29 -40 -8 -3 -20 -15 -26 -26 -15 -29
21 -66 50 -51 25 13 34 44 19 68 -14 23 -4 73 14 67 6 -2 62 -11 124 -21 108
-16 112 -17 116 -43 4 -24 4 -24 6 5 l1 31 -112 17 c-62 9 -121 19 -131 22
-13 4 -21 -4 -32 -29z"/>
<path d="M6336 2859 c-9 -34 -15 -63 -13 -66 2 -2 12 24 21 58 10 33 16 63 13
65 -2 2 -11 -24 -21 -57z"/>
<path d="M4271 2891 c-24 -24 -26 -42 -10 -58 9 -9 9 -23 0 -57 -6 -25 -11
-47 -11 -49 0 -2 18 -7 41 -10 22 -3 42 -7 44 -9 2 -2 -8 -42 -22 -88 -17 -56
-34 -90 -49 -103 -25 -19 -32 -61 -13 -72 5 -4 21 -4 34 -1 29 7 43 49 25 71
-9 11 -6 33 15 105 15 50 25 94 22 97 -3 2 -24 7 -46 10 -23 3 -41 7 -41 8 0
20 30 76 53 98 27 25 28 29 15 49 -20 31 -34 32 -57 9z"/>
<path d="M2933 2850 c0 -25 2 -35 4 -22 2 12 2 32 0 45 -2 12 -4 2 -4 -23z"/>
<path d="M2941 2774 c0 -11 3 -14 6 -6 3 7 2 16 -1 19 -3 4 -6 -2 -5 -13z"/>
<path d="M3600 2775 c-116 -23 -225 -68 -300 -124 -43 -31 -122 -101 -114
-101 3 0 -2 -10 -10 -22 -9 -12 -16 -29 -16 -38 1 -8 7 -1 14 16 17 37 104
124 126 124 8 0 56 -7 105 -15 116 -19 114 -19 125 10 11 29 22 30 129 11 56
-10 78 -19 91 -36 31 -41 90 -8 75 41 -7 22 -42 25 -64 5 -14 -12 -28 -12
-101 0 -120 19 -128 19 -136 -12 -6 -23 -9 -25 -48 -19 -130 20 -165 28 -161
35 10 16 153 80 225 101 55 16 113 23 221 26 144 5 189 0 324 -41 11 -4 4 1
-15 10 -62 30 -152 43 -280 43 -69 -1 -154 -7 -190 -14z"/>
<path d="M4943 2750 c0 -25 2 -35 4 -22 2 12 2 32 0 45 -2 12 -4 2 -4 -23z"/>
<path d="M6306 2754 c-4 -14 -5 -28 -3 -31 3 -2 8 8 11 23 4 14 5 28 3 31 -3
2 -8 -8 -11 -23z"/>
<path d="M2960 2712 c0 -6 15 -30 33 -54 36 -47 118 -98 157 -97 22 1 21 2 -6
8 -59 15 -118 55 -151 105 -18 26 -33 44 -33 38z"/>
<path d="M6281 2669 c-7 -22 -11 -43 -8 -45 2 -2 9 14 16 37 7 22 11 43 8 45
-2 2 -9 -14 -16 -37z"/>
<path d="M4933 2655 c0 -22 2 -30 4 -17 2 12 2 30 0 40 -3 9 -5 -1 -4 -23z"/>
<path d="M4912 2558 c-7 -28 -11 -53 -8 -55 2 -2 9 19 16 47 7 28 10 53 8 55
-3 3 -10 -18 -16 -47z"/>
<path d="M6256 2584 c-4 -14 -5 -28 -3 -31 3 -2 8 8 11 23 4 14 5 28 3 31 -3
2 -8 -8 -11 -23z"/>
<path d="M3152 2428 c-2 -37 1 -46 12 -42 14 5 149 -11 189 -22 14 -4 16 -12
11 -38 -7 -39 -2 -42 85 -52 38 -4 61 -11 61 -19 0 -7 7 -18 15 -25 23 -19 65
3 65 34 0 38 -24 51 -58 31 -24 -14 -39 -16 -93 -8 l-64 8 3 37 c3 43 6 41
-125 59 l-92 13 -4 35 c-3 31 -4 29 -5 -11z"/>
<path d="M4867 2418 c-9 -23 -15 -44 -12 -46 3 -3 5 0 5 6 0 7 8 12 18 13 9 0
12 3 5 5 -9 4 -9 13 -2 31 5 14 8 27 6 29 -2 3 -11 -15 -20 -38z"/>
<path d="M2215 2389 c-19 -17 -35 -36 -35 -42 0 -6 7 -1 16 12 9 12 30 31 48
42 17 10 26 19 19 19 -7 0 -28 -14 -48 -31z"/>
<path d="M2328 2413 c6 -2 18 -2 25 0 6 3 1 5 -13 5 -14 0 -19 -2 -12 -5z"/>
<path d="M2388 2403 c6 -2 18 -2 25 0 6 3 1 5 -13 5 -14 0 -19 -2 -12 -5z"/>
<path d="M2458 2393 c6 -2 18 -2 25 0 6 3 1 5 -13 5 -14 0 -19 -2 -12 -5z"/>
<path d="M2523 2383 c9 -2 23 -2 30 0 6 3 -1 5 -18 5 -16 0 -22 -2 -12 -5z"/>
<path d="M4923 2383 c9 -2 23 -2 30 0 6 3 -1 5 -18 5 -16 0 -22 -2 -12 -5z"/>
<path d="M2588 2373 c6 -2 18 -2 25 0 6 3 1 5 -13 5 -14 0 -19 -2 -12 -5z"/>
<path d="M4988 2373 c6 -2 18 -2 25 0 6 3 1 5 -13 5 -14 0 -19 -2 -12 -5z"/>
<path d="M2658 2363 c6 -2 18 -2 25 0 6 3 1 5 -13 5 -14 0 -19 -2 -12 -5z"/>
<path d="M5058 2363 c6 -2 18 -2 25 0 6 3 1 5 -13 5 -14 0 -19 -2 -12 -5z"/>
<path d="M2728 2353 c6 -2 18 -2 25 0 6 3 1 5 -13 5 -14 0 -19 -2 -12 -5z"/>
<path d="M4814 2309 l-28 -51 -46 7 c-25 3 -57 8 -73 11 -24 5 -29 2 -39 -26
-10 -31 -12 -32 -54 -26 -105 15 -139 15 -69 1 109 -22 122 -20 130 15 5 22
11 30 23 26 10 -2 38 -7 65 -11 26 -3 47 -10 47 -14 0 -11 -70 -75 -115 -105
-22 -14 -36 -26 -32 -26 18 0 97 62 137 107 37 43 98 143 86 143 -3 0 -17 -23
-32 -51z"/>
<path d="M5128 2353 c7 -3 16 -2 19 1 4 3 -2 6 -13 5 -11 0 -14 -3 -6 -6z"/>
<path d="M2788 2343 c6 -2 18 -2 25 0 6 3 1 5 -13 5 -14 0 -19 -2 -12 -5z"/>
<path d="M5188 2343 c6 -2 18 -2 25 0 6 3 1 5 -13 5 -14 0 -19 -2 -12 -5z"/>
<path d="M2858 2333 c7 -3 16 -2 19 1 4 3 -2 6 -13 5 -11 0 -14 -3 -6 -6z"/>
<path d="M3170 2333 c0 -5 16 -28 36 -52 35 -41 83 -71 134 -85 14 -4 -4 8
-40 26 -43 22 -76 47 -97 76 -18 24 -33 40 -33 35z"/>
<path d="M5258 2333 c7 -3 16 -2 19 1 4 3 -2 6 -13 5 -11 0 -14 -3 -6 -6z"/>
<path d="M2275 2319 c-4 -6 -4 -13 -1 -16 3 -4 6 -1 6 5 0 6 8 13 18 15 15 4
15 5 0 6 -9 0 -20 -4 -23 -10z"/>
<path d="M2338 2313 c6 -2 18 -2 25 0 6 3 1 5 -13 5 -14 0 -19 -2 -12 -5z"/>
<path d="M2973 2297 c12 -13 24 -22 26 -20 6 4 -30 43 -40 43 -5 0 2 -10 14
-23z"/>
<path d="M4336 2274 c-20 -19 -20 -38 -1 -54 16 -13 65 -6 65 10 0 6 7 10 15
10 11 0 10 6 -7 25 -25 29 -50 32 -72 9z"/>
<path d="M2141 2224 c0 -11 3 -14 6 -6 3 7 2 16 -1 19 -3 4 -6 -2 -5 -13z"/>
<path d="M2860 2236 c0 -2 11 -6 25 -8 13 -3 22 -1 19 3 -5 9 -44 13 -44 5z"/>
<path d="M3001 2214 c0 -11 3 -14 6 -6 3 7 2 16 -1 19 -3 4 -6 -2 -5 -13z"/>
<path d="M2420 2191 c-46 -15 -116 -45 -129 -57 -8 -7 56 -78 95 -105 61 -42
65 -36 6 9 -28 21 -60 50 -72 64 l-21 27 38 19 c59 30 112 45 183 52 l65 7
-55 1 c-30 1 -80 -7 -110 -17z"/>
<path d="M2605 2190 c27 -12 43 -12 25 0 -8 5 -22 9 -30 9 -10 0 -8 -3 5 -9z"/>
<path d="M5251 2184 c0 -11 3 -14 6 -6 3 7 2 16 -1 19 -3 4 -6 -2 -5 -13z"/>
<path d="M3378 2183 c7 -3 16 -2 19 1 4 3 -2 6 -13 5 -11 0 -14 -3 -6 -6z"/>
<path d="M2670 2163 c50 -36 100 -86 100 -100 0 -8 -24 -25 -52 -39 -29 -13
-42 -21 -28 -18 14 4 42 15 63 26 31 15 36 22 28 37 -13 24 -83 86 -113 100
-22 11 -22 11 2 -6z"/>
<path d="M3433 2168 c15 -5 27 -17 28 -26 0 -13 2 -13 8 3 6 15 3 21 -13 27
-34 10 -54 7 -23 -4z"/>
<path d="M2486 2139 c-72 -85 24 -177 103 -98 55 55 33 129 -39 129 -30 0 -43
-6 -64 -31z"/>
<path d="M3498 2153 c7 -3 16 -2 19 1 4 3 -2 6 -13 5 -11 0 -14 -3 -6 -6z"/>
<path d="M3538 2143 c6 -2 18 -2 25 0 6 3 1 5 -13 5 -14 0 -19 -2 -12 -5z"/>
<path d="M3588 2133 c6 -2 18 -2 25 0 6 3 1 5 -13 5 -14 0 -19 -2 -12 -5z"/>
<path d="M3655 2120 c17 -4 44 -8 60 -8 25 0 24 2 -10 9 -51 10 -92 10 -50 -1z"/>
<path d="M6116 2104 c-4 -14 -5 -28 -3 -31 3 -2 8 8 11 23 4 14 5 28 3 31 -3
2 -8 -8 -11 -23z"/>
<path d="M3750 2099 c0 -5 5 -7 11 -4 5 4 21 4 35 1 20 -5 24 -12 24 -46 0
-65 76 -136 165 -155 17 -3 4 5 -28 19 -89 37 -127 81 -127 146 0 29 2 31 28
26 79 -16 333 -38 454 -39 98 -1 138 -5 138 -14 0 -25 -68 -99 -115 -125 -57
-31 -54 -38 4 -9 43 23 98 80 116 124 10 25 24 33 75 49 34 11 60 21 58 24 -3
2 -24 -3 -48 -11 -83 -29 -157 -35 -324 -24 -88 5 -226 19 -306 29 -171 23
-160 23 -160 9z"/>
<path d="M2096 2074 c-4 -14 -5 -28 -3 -31 3 -2 8 8 11 23 4 14 5 28 3 31 -3
2 -8 -8 -11 -23z"/>
<path d="M3441 2074 c0 -11 3 -14 6 -6 3 7 2 16 -1 19 -3 4 -6 -2 -5 -13z"/>
<path d="M3760 2076 c0 -17 43 -176 47 -173 4 5 -36 169 -43 176 -2 2 -4 1 -4
-3z"/>
<path d="M6096 2034 c-4 -14 -5 -28 -3 -31 3 -2 8 8 11 23 4 14 5 28 3 31 -3
2 -8 -8 -11 -23z"/>
<path d="M2950 2038 c0 -14 8 -18 33 -17 27 2 28 2 7 6 -14 3 -28 10 -32 17
-5 7 -8 5 -8 -6z"/>
<path d="M5201 2014 c0 -11 3 -14 6 -6 3 7 2 16 -1 19 -3 4 -6 -2 -5 -13z"/>
<path d="M3038 2013 c6 -2 18 -2 25 0 6 3 1 5 -13 5 -14 0 -19 -2 -12 -5z"/>
<path d="M3421 2004 c0 -11 3 -14 6 -6 3 7 2 16 -1 19 -3 4 -6 -2 -5 -13z"/>
<path d="M2176 1988 c-8 -30 -7 -38 2 -38 4 0 8 14 9 30 3 36 -2 39 -11 8z"/>
<path d="M2595 1990 l-40 -7 35 -1 c19 0 44 3 55 8 24 10 7 10 -50 0z"/>
<path d="M3178 1993 c7 -3 16 -2 19 1 4 3 -2 6 -13 5 -11 0 -14 -3 -6 -6z"/>
<path d="M2488 1983 c6 -2 18 -2 25 0 6 3 1 5 -13 5 -14 0 -19 -2 -12 -5z"/>
<path d="M3233 1983 c9 -2 23 -2 30 0 6 3 -1 5 -18 5 -16 0 -22 -2 -12 -5z"/>
<path d="M6076 1964 c-4 -14 -5 -28 -3 -31 3 -2 8 8 11 23 4 14 5 28 3 31 -3
2 -8 -8 -11 -23z"/>
<path d="M2931 1964 c0 -11 3 -14 6 -6 3 7 2 16 -1 19 -3 4 -6 -2 -5 -13z"/>
<path d="M3308 1973 c6 -2 18 -2 25 0 6 3 1 5 -13 5 -14 0 -19 -2 -12 -5z"/>
<path d="M3385 1970 l-30 -8 33 -1 c17 0 32 4 32 9 0 6 -1 9 -2 9 -2 -1 -16
-5 -33 -9z"/>
<path d="M2223 1943 c9 -2 23 -2 30 0 6 3 -1 5 -18 5 -16 0 -22 -2 -12 -5z"/>
<path d="M1332 1858 c-13 -44 -21 -82 -19 -85 2 -2 14 33 27 77 13 44 21 82
19 85 -3 2 -15 -33 -27 -77z"/>
<path d="M2070 1926 c0 -8 4 -17 9 -20 5 -4 7 3 4 14 -6 23 -13 26 -13 6z"/>
<path d="M2811 1914 c0 -11 3 -14 6 -6 3 7 2 16 -1 19 -3 4 -6 -2 -5 -13z"/>
<path d="M6056 1894 c-4 -14 -5 -28 -3 -31 3 -2 8 8 11 23 4 14 5 28 3 31 -3
2 -8 -8 -11 -23z"/>
<path d="M2104 1876 c11 -9 24 -16 30 -16 12 0 7 5 -24 19 -24 11 -24 11 -6
-3z"/>
<path d="M2796 1875 c-9 -26 -7 -32 5 -12 6 10 9 21 6 23 -2 3 -7 -2 -11 -11z"/>
<path d="M3811 1874 c0 -11 3 -14 6 -6 3 7 2 16 -1 19 -3 4 -6 -2 -5 -13z"/>
<path d="M4028 1883 c7 -3 16 -2 19 1 4 3 -2 6 -13 5 -11 0 -14 -3 -6 -6z"/>
<path d="M4673 1883 c9 -2 23 -2 30 0 6 3 -1 5 -18 5 -16 0 -22 -2 -12 -5z"/>
<path d="M4073 1873 c9 -2 23 -2 30 0 6 3 -1 5 -18 5 -16 0 -22 -2 -12 -5z"/>
<path d="M4248 1873 c6 -2 18 -2 25 0 6 3 1 5 -13 5 -14 0 -19 -2 -12 -5z"/>
<path d="M4598 1851 c-18 -16 -31 -31 -28 -33 3 -2 20 12 38 30 42 40 34 42
-10 3z"/>
<path d="M4758 1873 c7 -3 16 -2 19 1 4 3 -2 6 -13 5 -11 0 -14 -3 -6 -6z"/>
<path d="M2748 1863 c7 -3 16 -2 19 1 4 3 -2 6 -13 5 -11 0 -14 -3 -6 -6z"/>
<path d="M4153 1863 c15 -2 39 -2 55 0 15 2 2 4 -28 4 -30 0 -43 -2 -27 -4z"/>
<path d="M4828 1863 c7 -3 16 -2 19 1 4 3 -2 6 -13 5 -11 0 -14 -3 -6 -6z"/>
<path d="M2168 1853 c6 -2 18 -2 25 0 6 3 1 5 -13 5 -14 0 -19 -2 -12 -5z"/>
<path d="M3943 1825 c0 -22 2 -30 4 -17 2 12 2 30 0 40 -3 9 -5 -1 -4 -23z"/>
<path d="M4888 1853 c6 -2 18 -2 25 0 6 3 1 5 -13 5 -14 0 -19 -2 -12 -5z"/>
<path d="M1152 1803 c-7 -25 -11 -47 -9 -50 2 -2 10 17 17 42 7 25 11 48 8 50
-2 2 -10 -16 -16 -42z"/>
<path d="M2228 1843 c6 -2 18 -2 25 0 6 3 1 5 -13 5 -14 0 -19 -2 -12 -5z"/>
<path d="M3821 1844 c-2 -19 21 -78 37 -96 8 -10 23 -18 32 -18 17 0 50 30 50
46 0 4 -7 -2 -16 -14 -17 -24 -48 -29 -61 -10 -4 7 -16 33 -25 58 -9 25 -17
40 -17 34z"/>
<path d="M4948 1843 c6 -2 18 -2 25 0 6 3 1 5 -13 5 -14 0 -19 -2 -12 -5z"/>
<path d="M5146 1834 c-9 -23 -8 -24 17 -23 16 1 17 3 5 6 -10 2 -15 10 -11 19
3 8 3 14 0 14 -3 0 -8 -7 -11 -16z"/>
<path d="M6026 1788 c-10 -35 -20 -72 -23 -83 -3 -11 -3 -17 1 -14 9 8 48 150
43 156 -2 2 -12 -25 -21 -59z"/>
<path d="M2298 1833 c6 -2 18 -2 25 0 6 3 1 5 -13 5 -14 0 -19 -2 -12 -5z"/>
<path d="M5018 1833 c6 -2 18 -2 25 0 6 3 1 5 -13 5 -14 0 -19 -2 -12 -5z"/>
<path d="M2368 1823 c6 -2 18 -2 25 0 6 3 1 5 -13 5 -14 0 -19 -2 -12 -5z"/>
<path d="M5083 1823 c9 -2 23 -2 30 0 6 3 -1 5 -18 5 -16 0 -22 -2 -12 -5z"/>
<path d="M2438 1813 c7 -3 16 -2 19 1 4 3 -2 6 -13 5 -11 0 -14 -3 -6 -6z"/>
<path d="M2498 1803 c6 -2 18 -2 25 0 6 3 1 5 -13 5 -14 0 -19 -2 -12 -5z"/>
<path d="M2845 1790 c-16 -11 -25 -20 -20 -20 10 0 64 39 55 40 -3 0 -18 -9
-35 -20z"/>
<path d="M5213 1803 c9 -2 23 -2 30 0 6 3 -1 5 -18 5 -16 0 -22 -2 -12 -5z"/>
<path d="M2568 1793 c6 -2 18 -2 25 0 6 3 1 5 -13 5 -14 0 -19 -2 -12 -5z"/>
<path d="M5288 1793 c6 -2 18 -2 25 0 6 3 1 5 -13 5 -14 0 -19 -2 -12 -5z"/>
<path d="M2628 1783 c6 -2 18 -2 25 0 6 3 1 5 -13 5 -14 0 -19 -2 -12 -5z"/>
<path d="M5348 1783 c6 -2 18 -2 25 0 6 3 1 5 -13 5 -14 0 -19 -2 -12 -5z"/>
<path d="M2698 1773 c6 -2 18 -2 25 0 6 3 1 5 -13 5 -14 0 -19 -2 -12 -5z"/>
<path d="M5418 1773 c6 -2 18 -2 25 0 6 3 1 5 -13 5 -14 0 -19 -2 -12 -5z"/>
<path d="M6952 1753 c-30 -14 -57 -35 -62 -46 -14 -36 -42 -217 -37 -238 3
-10 4 -19 2 -19 -1 0 -60 27 -131 60 -71 33 -139 60 -151 60 -35 0 -151 -57
-156 -77 -3 -10 -13 -66 -23 -126 -16 -101 -16 -108 0 -126 20 -22 685 -331
713 -331 10 0 41 11 70 24 56 27 52 16 78 173 l15 92 -71 268 c-58 218 -76
272 -96 291 -32 29 -82 28 -151 -5z m141 3 c13 -10 41 -99 93 -288 41 -150 72
-278 70 -285 -7 -18 -81 -53 -114 -53 -15 0 -180 70 -368 158 -317 147 -339
159 -342 185 -3 25 3 30 63 58 44 21 73 29 90 25 14 -4 106 -44 204 -90 99
-46 182 -82 184 -80 2 3 -13 68 -35 146 -21 78 -38 151 -36 162 2 14 21 30 58
48 61 30 105 35 133 14z"/>
<path d="M2773 1763 c9 -2 23 -2 30 0 6 3 -1 5 -18 5 -16 0 -22 -2 -12 -5z"/>
<path d="M5478 1763 c6 -2 18 -2 25 0 6 3 1 5 -13 5 -14 0 -19 -2 -12 -5z"/>
<path d="M1296 1734 c-4 -14 -5 -28 -3 -31 3 -2 8 8 11 23 4 14 5 28 3 31 -3
2 -8 -8 -11 -23z"/>
<path d="M5548 1753 c6 -2 18 -2 25 0 6 3 1 5 -13 5 -14 0 -19 -2 -12 -5z"/>
<path d="M5601 1747 c2 -2 18 -11 34 -21 l30 -17 -24 20 c-13 12 -28 21 -34
21 -6 0 -8 -1 -6 -3z"/>
<path d="M1126 1714 c-4 -14 -5 -28 -3 -31 3 -2 8 8 11 23 4 14 5 28 3 31 -3
2 -8 -8 -11 -23z"/>
<path d="M1265 1627 c-9 -35 -15 -74 -12 -88 4 -21 4 -20 6 7 0 17 8 54 17 83
8 29 13 55 11 57 -3 3 -12 -24 -22 -59z"/>
<path d="M5986 1654 c-4 -14 -5 -28 -3 -31 3 -2 8 8 11 23 4 14 5 28 3 31 -3
2 -8 -8 -11 -23z"/>
<path d="M1106 1644 c-4 -14 -5 -28 -3 -31 3 -2 8 8 11 23 4 14 5 28 3 31 -3
2 -8 -8 -11 -23z"/>
<path d="M4674 1636 c-19 -19 -34 -40 -34 -47 0 -8 9 1 20 19 11 18 35 39 53
47 20 9 25 14 14 15 -11 0 -34 -15 -53 -34z"/>
<path d="M4815 1659 c22 -4 51 -8 65 -7 16 0 11 3 -15 9 -22 4 -51 8 -65 7
-16 0 -11 -3 15 -9z"/>
<path d="M4923 1643 c9 -2 25 -2 35 0 9 3 1 5 -18 5 -19 0 -27 -2 -17 -5z"/>
<path d="M4993 1633 c9 -2 23 -2 30 0 6 3 -1 5 -18 5 -16 0 -22 -2 -12 -5z"/>
<path d="M5063 1623 c9 -2 23 -2 30 0 6 3 -1 5 -18 5 -16 0 -22 -2 -12 -5z"/>
<path d="M5123 1613 c9 -2 25 -2 35 0 9 3 1 5 -18 5 -19 0 -27 -2 -17 -5z"/>
<path d="M5225 1610 c-27 -4 -39 -8 -26 -8 l25 -2 -31 -32 c-50 -52 -69 -130
-42 -179 10 -19 8 -20 -43 -15 l-53 5 55 -12 c30 -7 68 -21 84 -32 22 -14 45
-19 87 -18 l58 1 36 -64 c37 -66 52 -75 79 -49 18 18 14 30 -30 104 l-32 54
25 38 c45 69 27 171 -37 204 -30 16 -69 17 -155 5z m153 -66 c57 -64 -7 -184
-99 -184 -56 0 -92 34 -92 89 0 104 127 168 191 95z"/>
<path d="M5966 1584 c-4 -14 -5 -28 -3 -31 3 -2 8 8 11 23 4 14 5 28 3 31 -3
2 -8 -8 -11 -23z"/>
<path d="M1086 1574 c-4 -14 -5 -28 -3 -31 3 -2 8 8 11 23 4 14 5 28 3 31 -3
2 -8 -8 -11 -23z"/>
<path d="M4631 1554 c0 -11 3 -14 6 -6 3 7 2 16 -1 19 -3 4 -6 -2 -5 -13z"/>
<path d="M5641 1544 c0 -11 3 -14 6 -6 3 7 2 16 -1 19 -3 4 -6 -2 -5 -13z"/>
<path d="M5946 1514 c-4 -14 -5 -28 -3 -31 3 -2 8 8 11 23 4 14 5 28 3 31 -3
2 -8 -8 -11 -23z"/>
<path d="M1073 1470 c0 -36 2 -50 4 -32 2 17 2 47 0 65 -2 17 -4 3 -4 -33z"/>
<path d="M1261 1495 c-2 -53 100 -142 152 -132 19 4 18 4 -4 6 -27 1 -94 42
-116 70 -7 9 -17 30 -22 46 -7 21 -9 24 -10 10z"/>
<path d="M4630 1492 c0 -21 47 -62 72 -61 18 1 16 3 -9 10 -19 6 -39 21 -47
37 -9 15 -15 21 -16 14z"/>
<path d="M5916 1414 c-4 -14 -5 -28 -3 -31 3 -2 8 8 11 23 4 14 5 28 3 31 -3
2 -8 -8 -11 -23z"/>
<path d="M4743 1423 c9 -2 23 -2 30 0 6 3 -1 5 -18 5 -16 0 -22 -2 -12 -5z"/>
<path d="M4803 1413 c9 -2 25 -2 35 0 9 3 1 5 -18 5 -19 0 -27 -2 -17 -5z"/>
<path d="M4873 1403 c9 -2 23 -2 30 0 6 3 -1 5 -18 5 -16 0 -22 -2 -12 -5z"/>
<path d="M4441 1384 c0 -11 3 -14 6 -6 3 7 2 16 -1 19 -3 4 -6 -2 -5 -13z"/>
<path d="M4933 1393 c9 -2 25 -2 35 0 9 3 1 5 -18 5 -19 0 -27 -2 -17 -5z"/>
<path d="M5003 1383 c9 -2 25 -2 35 0 9 3 1 5 -18 5 -19 0 -27 -2 -17 -5z"/>
<path d="M5896 1344 c-4 -14 -5 -28 -3 -31 3 -2 8 8 11 23 4 14 5 28 3 31 -3
2 -8 -8 -11 -23z"/>
<path d="M1453 1353 c9 -2 25 -2 35 0 9 3 1 5 -18 5 -19 0 -27 -2 -17 -5z"/>
<path d="M4432 1335 c0 -16 2 -22 5 -12 2 9 2 23 0 30 -3 6 -5 -1 -5 -18z"/>
<path d="M1523 1343 c9 -2 25 -2 35 0 9 3 1 5 -18 5 -19 0 -27 -2 -17 -5z"/>
<path d="M1593 1333 c9 -2 23 -2 30 0 6 3 -1 5 -18 5 -16 0 -22 -2 -12 -5z"/>
<path d="M1675 1319 c22 -4 54 -8 70 -7 22 0 19 3 -15 9 -60 10 -108 9 -55 -2z"/>
<path d="M5571 1304 c0 -11 3 -14 6 -6 3 7 2 16 -1 19 -3 4 -6 -2 -5 -13z"/>
<path d="M1788 1303 c6 -2 18 -2 25 0 6 3 1 5 -13 5 -14 0 -19 -2 -12 -5z"/>
<path d="M1853 1293 c9 -2 23 -2 30 0 6 3 -1 5 -18 5 -16 0 -22 -2 -12 -5z"/>
<path d="M4440 1291 c0 -9 49 -56 53 -50 1 2 -10 16 -25 31 -15 15 -28 23 -28
19z"/>
<path d="M5876 1274 c-4 -14 -5 -28 -3 -31 3 -2 8 8 11 23 4 14 5 28 3 31 -3
2 -8 -8 -11 -23z"/>
<path d="M1913 1283 c9 -2 25 -2 35 0 9 3 1 5 -18 5 -19 0 -27 -2 -17 -5z"/>
<path d="M2005 1269 c22 -4 51 -8 65 -7 16 0 11 3 -15 9 -22 4 -51 8 -65 7
-16 0 -11 -3 15 -9z"/>
<path d="M2135 1249 c22 -4 51 -8 65 -7 16 0 11 3 -15 9 -22 4 -51 8 -65 7
-16 0 -11 -3 15 -9z"/>
<path d="M5551 1234 c0 -11 3 -14 6 -6 3 7 2 16 -1 19 -3 4 -6 -2 -5 -13z"/>
<path d="M2253 1233 c9 -2 23 -2 30 0 6 3 -1 5 -18 5 -16 0 -22 -2 -12 -5z"/>
<path d="M4538 1233 c7 -3 16 -2 19 1 4 3 -2 6 -13 5 -11 0 -14 -3 -6 -6z"/>
<path d="M2313 1223 c9 -2 23 -2 30 0 6 3 -1 5 -18 5 -16 0 -22 -2 -12 -5z"/>
<path d="M4603 1223 c9 -2 23 -2 30 0 6 3 -1 5 -18 5 -16 0 -22 -2 -12 -5z"/>
<path d="M5851 1189 c-7 -22 -11 -43 -8 -45 2 -2 9 14 16 37 7 22 11 43 8 45
-2 2 -9 -14 -16 -37z"/>
<path d="M2383 1213 c9 -2 23 -2 30 0 6 3 -1 5 -18 5 -16 0 -22 -2 -12 -5z"/>
<path d="M4663 1213 c9 -2 23 -2 30 0 6 3 -1 5 -18 5 -16 0 -22 -2 -12 -5z"/>
<path d="M2443 1203 c9 -2 25 -2 35 0 9 3 1 5 -18 5 -19 0 -27 -2 -17 -5z"/>
<path d="M4733 1203 c9 -2 23 -2 30 0 6 3 -1 5 -18 5 -16 0 -22 -2 -12 -5z"/>
<path d="M2513 1193 c9 -2 23 -2 30 0 6 3 -1 5 -18 5 -16 0 -22 -2 -12 -5z"/>
<path d="M4798 1193 c6 -2 18 -2 25 0 6 3 1 5 -13 5 -14 0 -19 -2 -12 -5z"/>
<path d="M2583 1183 c9 -2 23 -2 30 0 6 3 -1 5 -18 5 -16 0 -22 -2 -12 -5z"/>
<path d="M4868 1183 c6 -2 18 -2 25 0 6 3 1 5 -13 5 -14 0 -19 -2 -12 -5z"/>
<path d="M2643 1173 c9 -2 23 -2 30 0 6 3 -1 5 -18 5 -16 0 -22 -2 -12 -5z"/>
<path d="M4928 1173 c6 -2 18 -2 25 0 6 3 1 5 -13 5 -14 0 -19 -2 -12 -5z"/>
<path d="M5520 1160 c-6 -11 -23 -26 -38 -34 -15 -9 -22 -15 -17 -16 16 0 54
29 65 51 6 10 8 19 6 19 -3 0 -10 -9 -16 -20z"/>
<path d="M2703 1163 c9 -2 25 -2 35 0 9 3 1 5 -18 5 -19 0 -27 -2 -17 -5z"/>
<path d="M4998 1163 c7 -3 16 -2 19 1 4 3 -2 6 -13 5 -11 0 -14 -3 -6 -6z"/>
<path d="M2773 1153 c9 -2 25 -2 35 0 9 3 1 5 -18 5 -19 0 -27 -2 -17 -5z"/>
<path d="M5068 1153 c7 -3 16 -2 19 1 4 3 -2 6 -13 5 -11 0 -14 -3 -6 -6z"/>
<path d="M2843 1143 c9 -2 23 -2 30 0 6 3 -1 5 -18 5 -16 0 -22 -2 -12 -5z"/>
<path d="M5128 1143 c6 -2 18 -2 25 0 6 3 1 5 -13 5 -14 0 -19 -2 -12 -5z"/>
<path d="M2903 1133 c9 -2 23 -2 30 0 6 3 -1 5 -18 5 -16 0 -22 -2 -12 -5z"/>
<path d="M5188 1133 c6 -2 18 -2 25 0 6 3 1 5 -13 5 -14 0 -19 -2 -12 -5z"/>
<path d="M2995 1119 c22 -4 51 -8 65 -7 16 0 11 3 -15 9 -22 4 -51 8 -65 7
-16 0 -11 -3 15 -9z"/>
<path d="M5263 1123 c9 -2 23 -2 30 0 6 3 -1 5 -18 5 -16 0 -22 -2 -12 -5z"/>
<path d="M5826 1104 c-4 -14 -5 -28 -3 -31 3 -2 8 8 11 23 4 14 5 28 3 31 -3
2 -8 -8 -11 -23z"/>
<path d="M5328 1113 c6 -2 18 -2 25 0 6 3 1 5 -13 5 -14 0 -19 -2 -12 -5z"/>
<path d="M3103 1103 c9 -2 23 -2 30 0 6 3 -1 5 -18 5 -16 0 -22 -2 -12 -5z"/>
<path d="M5403 1103 c9 -2 25 -2 35 0 9 3 1 5 -18 5 -19 0 -27 -2 -17 -5z"/>
<path d="M3163 1093 c9 -2 25 -2 35 0 9 3 1 5 -18 5 -19 0 -27 -2 -17 -5z"/>
<path d="M3233 1083 c9 -2 25 -2 35 0 9 3 1 5 -18 5 -19 0 -27 -2 -17 -5z"/>
<path d="M3303 1073 c9 -2 23 -2 30 0 6 3 -1 5 -18 5 -16 0 -22 -2 -12 -5z"/>
<path d="M3373 1063 c9 -2 23 -2 30 0 6 3 -1 5 -18 5 -16 0 -22 -2 -12 -5z"/>
<path d="M3433 1053 c9 -2 25 -2 35 0 9 3 1 5 -18 5 -19 0 -27 -2 -17 -5z"/>
<path d="M5791 983 c-12 -43 -33 -97 -47 -119 -21 -38 -103 -104 -127 -104 -6
0 -8 -3 -4 -6 12 -12 98 48 128 88 27 38 87 204 76 214 -2 2 -14 -31 -26 -73z"/>
<path d="M3503 1043 c9 -2 23 -2 30 0 6 3 -1 5 -18 5 -16 0 -22 -2 -12 -5z"/>
<path d="M3563 1033 c9 -2 25 -2 35 0 9 3 1 5 -18 5 -19 0 -27 -2 -17 -5z"/>
<path d="M3633 1023 c9 -2 23 -2 30 0 6 3 -1 5 -18 5 -16 0 -22 -2 -12 -5z"/>
<path d="M3703 1013 c9 -2 23 -2 30 0 6 3 -1 5 -18 5 -16 0 -22 -2 -12 -5z"/>
<path d="M3763 1003 c9 -2 25 -2 35 0 9 3 1 5 -18 5 -19 0 -27 -2 -17 -5z"/>
<path d="M3833 993 c9 -2 23 -2 30 0 6 3 -1 5 -18 5 -16 0 -22 -2 -12 -5z"/>
<path d="M3893 983 c9 -2 25 -2 35 0 9 3 1 5 -18 5 -19 0 -27 -2 -17 -5z"/>
<path d="M3963 973 c9 -2 23 -2 30 0 6 3 -1 5 -18 5 -16 0 -22 -2 -12 -5z"/>
<path d="M4033 963 c9 -2 23 -2 30 0 6 3 -1 5 -18 5 -16 0 -22 -2 -12 -5z"/>
<path d="M4093 953 c9 -2 23 -2 30 0 6 3 -1 5 -18 5 -16 0 -22 -2 -12 -5z"/>
<path d="M4153 943 c9 -2 25 -2 35 0 9 3 1 5 -18 5 -19 0 -27 -2 -17 -5z"/>
<path d="M4223 933 c9 -2 25 -2 35 0 9 3 1 5 -18 5 -19 0 -27 -2 -17 -5z"/>
<path d="M4293 923 c9 -2 23 -2 30 0 6 3 -1 5 -18 5 -16 0 -22 -2 -12 -5z"/>
<path d="M4363 913 c9 -2 23 -2 30 0 6 3 -1 5 -18 5 -16 0 -22 -2 -12 -5z"/>
<path d="M4423 903 c9 -2 23 -2 30 0 6 3 -1 5 -18 5 -16 0 -22 -2 -12 -5z"/>
<path d="M4483 893 c9 -2 25 -2 35 0 9 3 1 5 -18 5 -19 0 -27 -2 -17 -5z"/>
<path d="M4553 883 c9 -2 25 -2 35 0 9 3 1 5 -18 5 -19 0 -27 -2 -17 -5z"/>
<path d="M4623 873 c9 -2 23 -2 30 0 6 3 -1 5 -18 5 -16 0 -22 -2 -12 -5z"/>
<path d="M4683 863 c9 -2 25 -2 35 0 9 3 1 5 -18 5 -19 0 -27 -2 -17 -5z"/>
<path d="M4775 849 c22 -4 51 -8 65 -7 16 0 11 3 -15 9 -22 4 -51 8 -65 7 -16
0 -11 -3 15 -9z"/>
<path d="M4905 829 c22 -4 51 -8 65 -7 16 0 11 3 -15 9 -22 4 -51 8 -65 7 -16
0 -11 -3 15 -9z"/>
<path d="M5013 813 c9 -2 25 -2 35 0 9 3 1 5 -18 5 -19 0 -27 -2 -17 -5z"/>
<path d="M5083 803 c9 -2 23 -2 30 0 6 3 -1 5 -18 5 -16 0 -22 -2 -12 -5z"/>
<path d="M5153 793 c9 -2 23 -2 30 0 6 3 -1 5 -18 5 -16 0 -22 -2 -12 -5z"/>
<path d="M5235 779 c22 -4 51 -8 65 -7 16 0 11 3 -15 9 -22 4 -51 8 -65 7 -16
0 -11 -3 15 -9z"/>
<path d="M5343 763 c9 -2 25 -2 35 0 9 3 1 5 -18 5 -19 0 -27 -2 -17 -5z"/>
<path d="M5413 753 c9 -2 23 -2 30 0 6 3 -1 5 -18 5 -16 0 -22 -2 -12 -5z"/>
<path d="M5473 743 c9 -2 25 -2 35 0 9 3 1 5 -18 5 -19 0 -27 -2 -17 -5z"/>
<path d="M5568 743 c6 -2 18 -2 25 0 6 3 1 5 -13 5 -14 0 -19 -2 -12 -5z"/>
</g>
</svg>
